<?xml version="1.0" encoding="UTF-8" standalone="no"?><svg xmlns="http://www.w3.org/2000/svg" xmlns:xlink="http://www.w3.org/1999/xlink" contentScriptType="application/ecmascript" contentStyleType="text/css" height="359px" preserveAspectRatio="none" style="width:420px;height:359px;" version="1.1" viewBox="0 0 420 359" width="420px" zoomAndPan="magnify"><defs><filter height="300%" id="f1053j3bup7rsh" width="300%" x="-1" y="-1"><feGaussianBlur result="blurOut" stdDeviation="2.0"/><feColorMatrix in="blurOut" result="blurOut2" type="matrix" values="0 0 0 0 0 0 0 0 0 0 0 0 0 0 0 0 0 0 .4 0"/><feOffset dx="4.0" dy="4.0" in="blurOut2" result="blurOut3"/><feBlend in="SourceGraphic" in2="blurOut3" mode="normal"/></filter></defs><g><!--MD5=[ca9775ca4ec1621bca3d85054e5b4f52]
class VolumeMode--><rect fill="#FEFECE" filter="url(#f1053j3bup7rsh)" height="86.4141" id="VolumeMode" style="stroke: #A80036; stroke-width: 1.5;" width="403" x="6" y="116"/><ellipse cx="163.25" cy="132" fill="#ADD1B2" rx="11" ry="11" style="stroke: #A80036; stroke-width: 1.0;"/><path d="M166.2188,137.6406 Q165.6406,137.9375 165,138.0781 Q164.3594,138.2344 163.6563,138.2344 Q161.1563,138.2344 159.8281,136.5938 Q158.5156,134.9375 158.5156,131.8125 Q158.5156,128.6875 159.8281,127.0313 Q161.1563,125.375 163.6563,125.375 Q164.3594,125.375 165,125.5313 Q165.6563,125.6875 166.2188,125.9844 L166.2188,128.7031 Q165.5938,128.125 165,127.8594 Q164.4063,127.5781 163.7813,127.5781 Q162.4375,127.5781 161.75,128.6563 Q161.0625,129.7188 161.0625,131.8125 Q161.0625,133.9063 161.75,134.9844 Q162.4375,136.0469 163.7813,136.0469 Q164.4063,136.0469 165,135.7813 Q165.5938,135.5 166.2188,134.9219 L166.2188,137.6406 Z "/><text fill="#000000" font-family="sans-serif" font-size="12" lengthAdjust="spacingAndGlyphs" textLength="80" x="183.75" y="136.1543">VolumeMode</text><line style="stroke: #A80036; stroke-width: 1.5;" x1="7" x2="408" y1="148" y2="148"/><line style="stroke: #A80036; stroke-width: 1.5;" x1="7" x2="408" y1="156" y2="156"/><ellipse cx="17" cy="167" fill="#84BE84" rx="3" ry="3" style="stroke: #038048; stroke-width: 1.0;"/><text fill="#000000" font-family="sans-serif" font-size="11" lengthAdjust="spacingAndGlyphs" textLength="232" x="26" y="170.2104">VolumeMode(callingController:Controller)</text><ellipse cx="17" cy="179.8047" fill="#84BE84" rx="3" ry="3" style="stroke: #038048; stroke-width: 1.0;"/><text fill="#000000" font-family="sans-serif" font-size="11" lengthAdjust="spacingAndGlyphs" textLength="377" x="26" y="183.0151">«override» IncomingCommands(command:InputCommands) : void</text><ellipse cx="17" cy="192.6094" fill="#84BE84" rx="3" ry="3" style="stroke: #038048; stroke-width: 1.0;"/><text fill="#000000" font-family="sans-serif" font-size="11" lengthAdjust="spacingAndGlyphs" textLength="163" x="26" y="195.8198">«override» Compute() : Task</text><!--MD5=[60d6b92408f98aed8df94d5c6e04aa63]
class State--><rect fill="#FEFECE" filter="url(#f1053j3bup7rsh)" height="86.4141" id="State" style="stroke: #A80036; stroke-width: 1.5;" width="88" x="163.5" y="262"/><ellipse cx="188.4" cy="278" fill="#EB937F" rx="11" ry="11" style="stroke: #A80036; stroke-width: 1.0;"/><path d="M192.5094,284 L184.7906,284 L184.7906,271.6094 L192.5094,271.6094 L192.5094,273.7656 L187.2438,273.7656 L187.2438,276.4375 L192.0094,276.4375 L192.0094,278.5938 L187.2438,278.5938 L187.2438,281.8438 L192.5094,281.8438 L192.5094,284 Z "/><text fill="#000000" font-family="sans-serif" font-size="12" lengthAdjust="spacingAndGlyphs" textLength="34" x="204.6" y="282.1543">State</text><line style="stroke: #A80036; stroke-width: 1.5;" x1="164.5" x2="250.5" y1="294" y2="294"/><text fill="#000000" font-family="sans-serif" font-size="11" lengthAdjust="spacingAndGlyphs" textLength="36" x="169.5" y="308.2104">Other,</text><text fill="#000000" font-family="sans-serif" font-size="11" lengthAdjust="spacingAndGlyphs" textLength="61" x="169.5" y="321.0151">MuteState,</text><text fill="#000000" font-family="sans-serif" font-size="11" lengthAdjust="spacingAndGlyphs" textLength="76" x="169.5" y="333.8198">VolumeState,</text><line style="stroke: #A80036; stroke-width: 1.5;" x1="164.5" x2="250.5" y1="340.4141" y2="340.4141"/><!--MD5=[6503e9964510e8b83256f8f5e7109bf1]
class Mode--><rect fill="#FEFECE" filter="url(#f1053j3bup7rsh)" height="48" id="Mode" style="stroke: #A80036; stroke-width: 1.5;" width="66" x="174.5" y="8"/><ellipse cx="189.5" cy="24" fill="#ADD1B2" rx="11" ry="11" style="stroke: #A80036; stroke-width: 1.0;"/><path d="M192.4688,29.6406 Q191.8906,29.9375 191.25,30.0781 Q190.6094,30.2344 189.9063,30.2344 Q187.4063,30.2344 186.0781,28.5938 Q184.7656,26.9375 184.7656,23.8125 Q184.7656,20.6875 186.0781,19.0313 Q187.4063,17.375 189.9063,17.375 Q190.6094,17.375 191.25,17.5313 Q191.9063,17.6875 192.4688,17.9844 L192.4688,20.7031 Q191.8438,20.125 191.25,19.8594 Q190.6563,19.5781 190.0313,19.5781 Q188.6875,19.5781 188,20.6563 Q187.3125,21.7188 187.3125,23.8125 Q187.3125,25.9063 188,26.9844 Q188.6875,28.0469 190.0313,28.0469 Q190.6563,28.0469 191.25,27.7813 Q191.8438,27.5 192.4688,26.9219 L192.4688,29.6406 Z "/><text fill="#000000" font-family="sans-serif" font-size="12" lengthAdjust="spacingAndGlyphs" textLength="34" x="203.5" y="28.1543">Mode</text><line style="stroke: #A80036; stroke-width: 1.5;" x1="175.5" x2="239.5" y1="40" y2="40"/><line style="stroke: #A80036; stroke-width: 1.5;" x1="175.5" x2="239.5" y1="48" y2="48"/><!--MD5=[25cd2b8e792ad0f91c1cba770cacc847]
reverse link Mode to VolumeMode--><path d="M207.5,76.27 C207.5,89.12 207.5,103.17 207.5,115.94 " fill="none" id="Mode&lt;-VolumeMode" style="stroke: #A80036; stroke-width: 1.0;"/><polygon fill="none" points="200.5,76.22,207.5,56.22,214.5,76.22,200.5,76.22" style="stroke: #A80036; stroke-width: 1.0;"/><!--MD5=[9fa1973c79ce4a36a8dbd692be7c685b]
reverse link VolumeMode to State--><path d="M207.5,217.09 C207.5,231.96 207.5,247.71 207.5,261.66 " fill="none" id="VolumeMode&lt;-State" style="stroke: #A80036; stroke-width: 1.0;"/><ellipse cx="207.5" cy="210.04" fill="#FFFFFF" rx="8" ry="8" style="stroke: #A80036; stroke-width: 1.0;"/><line style="stroke: #A80036; stroke-width: 1.0;" x1="207.5" x2="207.5" y1="218.04" y2="202.04"/><line style="stroke: #A80036; stroke-width: 1.0;" x1="199.5" x2="215.5" y1="210.04" y2="210.04"/><!--MD5=[7489afda138f310d18d267361d2d6f53]
@startuml
class VolumeMode {
    + VolumeMode(callingController:Controller)
    + <<override>> IncomingCommands(command:InputCommands) : void
    + <<override>> Compute() : Task
}
enum State {
    Other,
    MuteState,
    VolumeState,
}
Mode <|- - VolumeMode
VolumeMode +- - State
@enduml

PlantUML version 1.2020.02(Sun Mar 01 10:22:07 GMT 2020)
(GPL source distribution)
Java Runtime: OpenJDK Runtime Environment
JVM: OpenJDK 64-Bit Server VM
Java Version: 11.0.9+11-Ubuntu-0ubuntu1
Operating System: Linux
Default Encoding: ANSI_X3.4-1968
Language: en
Country: US
--></g></svg>