<?xml version="1.0" encoding="UTF-8" standalone="no"?><svg xmlns="http://www.w3.org/2000/svg" xmlns:xlink="http://www.w3.org/1999/xlink" contentScriptType="application/ecmascript" contentStyleType="text/css" height="175px" preserveAspectRatio="none" style="width:108px;height:175px;" version="1.1" viewBox="0 0 108 175" width="108px" zoomAndPan="magnify"><defs><filter height="300%" id="fktnwgqb8mfs7" width="300%" x="-1" y="-1"><feGaussianBlur result="blurOut" stdDeviation="2.0"/><feColorMatrix in="blurOut" result="blurOut2" type="matrix" values="0 0 0 0 0 0 0 0 0 0 0 0 0 0 0 0 0 0 .4 0"/><feOffset dx="4.0" dy="4.0" in="blurOut2" result="blurOut3"/><feBlend in="SourceGraphic" in2="blurOut3" mode="normal"/></filter></defs><g><!--MD5=[cbd08a60f16d53d37fa1e73fa9d04003]
class ILightRgb--><rect fill="#FEFECE" filter="url(#fktnwgqb8mfs7)" height="48" id="ILightRgb" style="stroke: #A80036; stroke-width: 1.5;" width="91" x="6" y="116"/><ellipse cx="21" cy="132" fill="#B4A7E5" rx="11" ry="11" style="stroke: #A80036; stroke-width: 1.0;"/><path d="M16.9219,127.7656 L16.9219,125.6094 L24.3125,125.6094 L24.3125,127.7656 L21.8438,127.7656 L21.8438,135.8438 L24.3125,135.8438 L24.3125,138 L16.9219,138 L16.9219,135.8438 L19.3906,135.8438 L19.3906,127.7656 L16.9219,127.7656 Z "/><text fill="#000000" font-family="sans-serif" font-size="12" font-style="italic" lengthAdjust="spacingAndGlyphs" textLength="59" x="35" y="136.1543">ILightRgb</text><line style="stroke: #A80036; stroke-width: 1.5;" x1="7" x2="96" y1="148" y2="148"/><line style="stroke: #A80036; stroke-width: 1.5;" x1="7" x2="96" y1="156" y2="156"/><!--MD5=[fd864ccf002c8b0f41664ff342654946]
class ILight--><rect fill="#FEFECE" filter="url(#fktnwgqb8mfs7)" height="48" id="ILight" style="stroke: #A80036; stroke-width: 1.5;" width="65" x="19" y="8"/><ellipse cx="34" cy="24" fill="#ADD1B2" rx="11" ry="11" style="stroke: #A80036; stroke-width: 1.0;"/><path d="M36.9688,29.6406 Q36.3906,29.9375 35.75,30.0781 Q35.1094,30.2344 34.4063,30.2344 Q31.9063,30.2344 30.5781,28.5938 Q29.2656,26.9375 29.2656,23.8125 Q29.2656,20.6875 30.5781,19.0313 Q31.9063,17.375 34.4063,17.375 Q35.1094,17.375 35.75,17.5313 Q36.4063,17.6875 36.9688,17.9844 L36.9688,20.7031 Q36.3438,20.125 35.75,19.8594 Q35.1563,19.5781 34.5313,19.5781 Q33.1875,19.5781 32.5,20.6563 Q31.8125,21.7188 31.8125,23.8125 Q31.8125,25.9063 32.5,26.9844 Q33.1875,28.0469 34.5313,28.0469 Q35.1563,28.0469 35.75,27.7813 Q36.3438,27.5 36.9688,26.9219 L36.9688,29.6406 Z "/><text fill="#000000" font-family="sans-serif" font-size="12" lengthAdjust="spacingAndGlyphs" textLength="33" x="48" y="28.1543">ILight</text><line style="stroke: #A80036; stroke-width: 1.5;" x1="20" x2="83" y1="40" y2="40"/><line style="stroke: #A80036; stroke-width: 1.5;" x1="20" x2="83" y1="48" y2="48"/><!--MD5=[1d788c3d0dde247a423035639334691f]
reverse link ILight to ILightRgb--><path d="M51.5,76.02 C51.5,89.58 51.5,104.04 51.5,115.68 " fill="none" id="ILight&lt;-ILightRgb" style="stroke: #A80036; stroke-width: 1.0;"/><polygon fill="none" points="44.5,76,51.5,56,58.5,76,44.5,76" style="stroke: #A80036; stroke-width: 1.0;"/><!--MD5=[13bbdad5a1332295693ac68828f0ba2a]
@startuml
interface ILightRgb {
}
ILight <|- - ILightRgb
@enduml

PlantUML version 1.2020.02(Sun Mar 01 10:22:07 GMT 2020)
(GPL source distribution)
Java Runtime: OpenJDK Runtime Environment
JVM: OpenJDK 64-Bit Server VM
Java Version: 11.0.9+11-Ubuntu-0ubuntu1
Operating System: Linux
Default Encoding: ANSI_X3.4-1968
Language: en
Country: US
--></g></svg>