<?xml version="1.0" encoding="UTF-8" standalone="no"?><svg xmlns="http://www.w3.org/2000/svg" xmlns:xlink="http://www.w3.org/1999/xlink" contentScriptType="application/ecmascript" contentStyleType="text/css" height="175px" preserveAspectRatio="none" style="width:114px;height:175px;" version="1.1" viewBox="0 0 114 175" width="114px" zoomAndPan="magnify"><defs><filter height="300%" id="f18dne2yvo6b7e" width="300%" x="-1" y="-1"><feGaussianBlur result="blurOut" stdDeviation="2.0"/><feColorMatrix in="blurOut" result="blurOut2" type="matrix" values="0 0 0 0 0 0 0 0 0 0 0 0 0 0 0 0 0 0 .4 0"/><feOffset dx="4.0" dy="4.0" in="blurOut2" result="blurOut3"/><feBlend in="SourceGraphic" in2="blurOut3" mode="normal"/></filter></defs><g><!--MD5=[fd864ccf002c8b0f41664ff342654946]
class ILight--><rect fill="#FEFECE" filter="url(#f18dne2yvo6b7e)" height="48" id="ILight" style="stroke: #A80036; stroke-width: 1.5;" width="67" x="21" y="116"/><ellipse cx="36" cy="132" fill="#B4A7E5" rx="11" ry="11" style="stroke: #A80036; stroke-width: 1.0;"/><path d="M31.9219,127.7656 L31.9219,125.6094 L39.3125,125.6094 L39.3125,127.7656 L36.8438,127.7656 L36.8438,135.8438 L39.3125,135.8438 L39.3125,138 L31.9219,138 L31.9219,135.8438 L34.3906,135.8438 L34.3906,127.7656 L31.9219,127.7656 Z "/><text fill="#000000" font-family="sans-serif" font-size="12" font-style="italic" lengthAdjust="spacingAndGlyphs" textLength="35" x="50" y="136.1543">ILight</text><line style="stroke: #A80036; stroke-width: 1.5;" x1="22" x2="87" y1="148" y2="148"/><line style="stroke: #A80036; stroke-width: 1.5;" x1="22" x2="87" y1="156" y2="156"/><!--MD5=[cca651f3000d8bfa5cc03fe1235fc747]
class ICloneable--><rect fill="#FEFECE" filter="url(#f18dne2yvo6b7e)" height="48" id="ICloneable" style="stroke: #A80036; stroke-width: 1.5;" width="97" x="6" y="8"/><ellipse cx="21" cy="24" fill="#ADD1B2" rx="11" ry="11" style="stroke: #A80036; stroke-width: 1.0;"/><path d="M23.9688,29.6406 Q23.3906,29.9375 22.75,30.0781 Q22.1094,30.2344 21.4063,30.2344 Q18.9063,30.2344 17.5781,28.5938 Q16.2656,26.9375 16.2656,23.8125 Q16.2656,20.6875 17.5781,19.0313 Q18.9063,17.375 21.4063,17.375 Q22.1094,17.375 22.75,17.5313 Q23.4063,17.6875 23.9688,17.9844 L23.9688,20.7031 Q23.3438,20.125 22.75,19.8594 Q22.1563,19.5781 21.5313,19.5781 Q20.1875,19.5781 19.5,20.6563 Q18.8125,21.7188 18.8125,23.8125 Q18.8125,25.9063 19.5,26.9844 Q20.1875,28.0469 21.5313,28.0469 Q22.1563,28.0469 22.75,27.7813 Q23.3438,27.5 23.9688,26.9219 L23.9688,29.6406 Z "/><text fill="#000000" font-family="sans-serif" font-size="12" lengthAdjust="spacingAndGlyphs" textLength="65" x="35" y="28.1543">ICloneable</text><line style="stroke: #A80036; stroke-width: 1.5;" x1="7" x2="102" y1="40" y2="40"/><line style="stroke: #A80036; stroke-width: 1.5;" x1="7" x2="102" y1="48" y2="48"/><!--MD5=[4d6c4fa1b4175e4e508ef971c567e3a4]
reverse link ICloneable to ILight--><path d="M54.5,76.02 C54.5,89.58 54.5,104.04 54.5,115.68 " fill="none" id="ICloneable&lt;-ILight" style="stroke: #A80036; stroke-width: 1.0;"/><polygon fill="none" points="47.5,76,54.5,56,61.5,76,47.5,76" style="stroke: #A80036; stroke-width: 1.0;"/><!--MD5=[35987a9c54c2512477211499db711ec3]
@startuml
interface ILight {
}
ICloneable <|- - ILight
@enduml

PlantUML version 1.2020.02(Sun Mar 01 10:22:07 GMT 2020)
(GPL source distribution)
Java Runtime: OpenJDK Runtime Environment
JVM: OpenJDK 64-Bit Server VM
Java Version: 11.0.9+11-Ubuntu-0ubuntu1
Operating System: Linux
Default Encoding: ANSI_X3.4-1968
Language: en
Country: US
--></g></svg>