<?xml version="1.0" encoding="UTF-8" standalone="no"?><svg xmlns="http://www.w3.org/2000/svg" xmlns:xlink="http://www.w3.org/1999/xlink" contentScriptType="application/ecmascript" contentStyleType="text/css" height="379px" preserveAspectRatio="none" style="width:578px;height:379px;" version="1.1" viewBox="0 0 578 379" width="578px" zoomAndPan="magnify"><defs><filter height="300%" id="f1f2ws6fcaffru" width="300%" x="-1" y="-1"><feGaussianBlur result="blurOut" stdDeviation="2.0"/><feColorMatrix in="blurOut" result="blurOut2" type="matrix" values="0 0 0 0 0 0 0 0 0 0 0 0 0 0 0 0 0 0 .4 0"/><feOffset dx="4.0" dy="4.0" in="blurOut2" result="blurOut3"/><feBlend in="SourceGraphic" in2="blurOut3" mode="normal"/></filter></defs><g><!--MD5=[a906b9027a9bbcb5154cabfef0d8ba9a]
class LightRgbwEffect--><rect fill="#FEFECE" filter="url(#f1f2ws6fcaffru)" height="252.875" id="LightRgbwEffect" style="stroke: #A80036; stroke-width: 1.5;" width="237" x="82.41" y="116"/><ellipse cx="147.16" cy="132" fill="#ADD1B2" rx="11" ry="11" style="stroke: #A80036; stroke-width: 1.0;"/><path d="M150.1288,137.6406 Q149.5506,137.9375 148.91,138.0781 Q148.2694,138.2344 147.5663,138.2344 Q145.0663,138.2344 143.7381,136.5938 Q142.4256,134.9375 142.4256,131.8125 Q142.4256,128.6875 143.7381,127.0313 Q145.0663,125.375 147.5663,125.375 Q148.2694,125.375 148.91,125.5313 Q149.5663,125.6875 150.1288,125.9844 L150.1288,128.7031 Q149.5038,128.125 148.91,127.8594 Q148.3163,127.5781 147.6913,127.5781 Q146.3475,127.5781 145.66,128.6563 Q144.9725,129.7188 144.9725,131.8125 Q144.9725,133.9063 145.66,134.9844 Q146.3475,136.0469 147.6913,136.0469 Q148.3163,136.0469 148.91,135.7813 Q149.5038,135.5 150.1288,134.9219 L150.1288,137.6406 Z "/><text fill="#000000" font-family="sans-serif" font-size="12" lengthAdjust="spacingAndGlyphs" textLength="99" x="167.66" y="136.1543">LightRgbwEffect</text><line style="stroke: #A80036; stroke-width: 1.5;" x1="83.41" x2="318.41" y1="148" y2="148"/><ellipse cx="93.41" cy="159" fill="none" rx="3" ry="3" style="stroke: #038048; stroke-width: 1.0;"/><text fill="#000000" font-family="sans-serif" font-size="11" lengthAdjust="spacingAndGlyphs" textLength="153" x="102.41" y="162.2104">MaxValue : int «get» = 255</text><ellipse cx="93.41" cy="171.8047" fill="none" rx="3" ry="3" style="stroke: #038048; stroke-width: 1.0;"/><text fill="#000000" font-family="sans-serif" font-size="11" lengthAdjust="spacingAndGlyphs" textLength="188" x="102.41" y="175.0151">ActiveEffect : string? «get» «set»</text><ellipse cx="93.41" cy="184.6094" fill="none" rx="3" ry="3" style="stroke: #038048; stroke-width: 1.0;"/><text fill="#000000" font-family="sans-serif" font-size="11" lengthAdjust="spacingAndGlyphs" textLength="166" x="102.41" y="187.8198">EffectSpeed : int «get» «set»</text><ellipse cx="93.41" cy="197.4141" fill="none" rx="3" ry="3" style="stroke: #038048; stroke-width: 1.0;"/><text fill="#000000" font-family="sans-serif" font-size="11" lengthAdjust="spacingAndGlyphs" textLength="105" x="102.41" y="200.6245">R : int «get» «set»</text><ellipse cx="93.41" cy="210.2188" fill="none" rx="3" ry="3" style="stroke: #038048; stroke-width: 1.0;"/><text fill="#000000" font-family="sans-serif" font-size="11" lengthAdjust="spacingAndGlyphs" textLength="107" x="102.41" y="213.4292">G : int «get» «set»</text><ellipse cx="93.41" cy="223.0234" fill="none" rx="3" ry="3" style="stroke: #038048; stroke-width: 1.0;"/><text fill="#000000" font-family="sans-serif" font-size="11" lengthAdjust="spacingAndGlyphs" textLength="106" x="102.41" y="226.2339">B : int «get» «set»</text><ellipse cx="93.41" cy="235.8281" fill="none" rx="3" ry="3" style="stroke: #038048; stroke-width: 1.0;"/><text fill="#000000" font-family="sans-serif" font-size="11" lengthAdjust="spacingAndGlyphs" textLength="107" x="102.41" y="239.0386">W : int «get» «set»</text><ellipse cx="93.41" cy="248.6328" fill="none" rx="3" ry="3" style="stroke: #038048; stroke-width: 1.0;"/><text fill="#000000" font-family="sans-serif" font-size="11" lengthAdjust="spacingAndGlyphs" textLength="160" x="102.41" y="251.8433">Brightness : int «get» «set»</text><ellipse cx="93.41" cy="261.4375" fill="none" rx="3" ry="3" style="stroke: #038048; stroke-width: 1.0;"/><text fill="#000000" font-family="sans-serif" font-size="11" lengthAdjust="spacingAndGlyphs" textLength="138" x="102.41" y="264.6479">State : bool «get» «set»</text><line style="stroke: #A80036; stroke-width: 1.5;" x1="83.41" x2="318.41" y1="271.2422" y2="271.2422"/><ellipse cx="93.41" cy="282.2422" fill="#84BE84" rx="3" ry="3" style="stroke: #038048; stroke-width: 1.0;"/><text fill="#000000" font-family="sans-serif" font-size="11" lengthAdjust="spacingAndGlyphs" textLength="211" x="102.41" y="285.4526">LightRgbwEffect(controller:Controller)</text><ellipse cx="93.41" cy="295.0469" fill="#84BE84" rx="3" ry="3" style="stroke: #038048; stroke-width: 1.0;"/><text fill="#000000" font-family="sans-serif" font-size="11" lengthAdjust="spacingAndGlyphs" textLength="110" x="102.41" y="298.2573">UpdateLight() : void</text><ellipse cx="93.41" cy="307.8516" fill="#84BE84" rx="3" ry="3" style="stroke: #038048; stroke-width: 1.0;"/><text fill="#000000" font-family="sans-serif" font-size="11" lengthAdjust="spacingAndGlyphs" textLength="189" x="102.41" y="311.062">UpdateLight(brightness:int) : void</text><ellipse cx="93.41" cy="320.6563" fill="#84BE84" rx="3" ry="3" style="stroke: #038048; stroke-width: 1.0;"/><text fill="#000000" font-family="sans-serif" font-size="11" lengthAdjust="spacingAndGlyphs" textLength="211" x="102.41" y="323.8667">Equals(other:LightRgbwEffect?) : bool</text><ellipse cx="93.41" cy="333.4609" fill="#84BE84" rx="3" ry="3" style="stroke: #038048; stroke-width: 1.0;"/><text fill="#000000" font-family="sans-serif" font-size="11" lengthAdjust="spacingAndGlyphs" textLength="208" x="102.41" y="336.6714">«override» Equals(obj:object?) : bool</text><ellipse cx="93.41" cy="346.2656" fill="#84BE84" rx="3" ry="3" style="stroke: #038048; stroke-width: 1.0;"/><text fill="#000000" font-family="sans-serif" font-size="11" lengthAdjust="spacingAndGlyphs" textLength="177" x="102.41" y="349.4761">«override» GetHashCode() : int</text><ellipse cx="93.41" cy="359.0703" fill="#84BE84" rx="3" ry="3" style="stroke: #038048; stroke-width: 1.0;"/><text fill="#000000" font-family="sans-serif" font-size="11" lengthAdjust="spacingAndGlyphs" textLength="86" x="102.41" y="362.2808">Clone() : object</text><!--MD5=[360575ecdc123693e9e157d6e9effc89]
class IEquatable`1--><rect fill="#FEFECE" filter="url(#f1f2ws6fcaffru)" height="48" id="IEquatable`1" style="stroke: #A80036; stroke-width: 1.5;" width="124" x="56.91" y="8"/><ellipse cx="71.91" cy="24" fill="#ADD1B2" rx="11" ry="11" style="stroke: #A80036; stroke-width: 1.0;"/><path d="M74.8788,29.6406 Q74.3006,29.9375 73.66,30.0781 Q73.0194,30.2344 72.3163,30.2344 Q69.8163,30.2344 68.4881,28.5938 Q67.1756,26.9375 67.1756,23.8125 Q67.1756,20.6875 68.4881,19.0313 Q69.8163,17.375 72.3163,17.375 Q73.0194,17.375 73.66,17.5313 Q74.3163,17.6875 74.8788,17.9844 L74.8788,20.7031 Q74.2538,20.125 73.66,19.8594 Q73.0663,19.5781 72.4413,19.5781 Q71.0975,19.5781 70.41,20.6563 Q69.7225,21.7188 69.7225,23.8125 Q69.7225,25.9063 70.41,26.9844 Q71.0975,28.0469 72.4413,28.0469 Q73.0663,28.0469 73.66,27.7813 Q74.2538,27.5 74.8788,26.9219 L74.8788,29.6406 Z "/><text fill="#000000" font-family="sans-serif" font-size="12" lengthAdjust="spacingAndGlyphs" textLength="81" x="85.91" y="28.1543">IEquatable`1</text><rect fill="#FFFFFF" height="15.9688" style="stroke: #000000; stroke-width: 1.0; stroke-dasharray: 2.0,2.0;" width="9" x="174.91" y="5"/><text fill="#000000" font-family="sans-serif" font-size="12" font-style="italic" lengthAdjust="spacingAndGlyphs" textLength="7" x="175.91" y="17.1387">T</text><line style="stroke: #A80036; stroke-width: 1.5;" x1="57.91" x2="179.91" y1="40" y2="40"/><line style="stroke: #A80036; stroke-width: 1.5;" x1="57.91" x2="179.91" y1="48" y2="48"/><!--MD5=[27b0d9beeca77c404db434f05f36e655]
class ISet`1--><rect fill="#FEFECE" filter="url(#f1f2ws6fcaffru)" height="48" id="ISet`1" style="stroke: #A80036; stroke-width: 1.5;" width="81" x="354.41" y="218.5"/><ellipse cx="369.41" cy="234.5" fill="#ADD1B2" rx="11" ry="11" style="stroke: #A80036; stroke-width: 1.0;"/><path d="M372.3788,240.1406 Q371.8006,240.4375 371.16,240.5781 Q370.5194,240.7344 369.8163,240.7344 Q367.3163,240.7344 365.9881,239.0938 Q364.6756,237.4375 364.6756,234.3125 Q364.6756,231.1875 365.9881,229.5313 Q367.3163,227.875 369.8163,227.875 Q370.5194,227.875 371.16,228.0313 Q371.8163,228.1875 372.3788,228.4844 L372.3788,231.2031 Q371.7538,230.625 371.16,230.3594 Q370.5663,230.0781 369.9413,230.0781 Q368.5975,230.0781 367.91,231.1563 Q367.2225,232.2188 367.2225,234.3125 Q367.2225,236.4063 367.91,237.4844 Q368.5975,238.5469 369.9413,238.5469 Q370.5663,238.5469 371.16,238.2813 Q371.7538,238 372.3788,237.4219 L372.3788,240.1406 Z "/><text fill="#000000" font-family="sans-serif" font-size="12" lengthAdjust="spacingAndGlyphs" textLength="38" x="383.41" y="238.6543">ISet`1</text><rect fill="#FFFFFF" height="15.9688" style="stroke: #000000; stroke-width: 1.0; stroke-dasharray: 2.0,2.0;" width="9" x="429.41" y="215.5"/><text fill="#000000" font-family="sans-serif" font-size="12" font-style="italic" lengthAdjust="spacingAndGlyphs" textLength="7" x="430.41" y="227.6387">T</text><line style="stroke: #A80036; stroke-width: 1.5;" x1="355.41" x2="434.41" y1="250.5" y2="250.5"/><line style="stroke: #A80036; stroke-width: 1.5;" x1="355.41" x2="434.41" y1="258.5" y2="258.5"/><!--MD5=[b9a6b2d14929c056c4c119d2e2b4f492]
class ILightRgbwEffect--><rect fill="#FEFECE" filter="url(#f1f2ws6fcaffru)" height="48" id="ILightRgbwEffect" style="stroke: #A80036; stroke-width: 1.5;" width="134" x="215.91" y="8"/><ellipse cx="230.91" cy="24" fill="#ADD1B2" rx="11" ry="11" style="stroke: #A80036; stroke-width: 1.0;"/><path d="M233.8788,29.6406 Q233.3006,29.9375 232.66,30.0781 Q232.0194,30.2344 231.3163,30.2344 Q228.8163,30.2344 227.4881,28.5938 Q226.1756,26.9375 226.1756,23.8125 Q226.1756,20.6875 227.4881,19.0313 Q228.8163,17.375 231.3163,17.375 Q232.0194,17.375 232.66,17.5313 Q233.3163,17.6875 233.8788,17.9844 L233.8788,20.7031 Q233.2538,20.125 232.66,19.8594 Q232.0663,19.5781 231.4413,19.5781 Q230.0975,19.5781 229.41,20.6563 Q228.7225,21.7188 228.7225,23.8125 Q228.7225,25.9063 229.41,26.9844 Q230.0975,28.0469 231.4413,28.0469 Q232.0663,28.0469 232.66,27.7813 Q233.2538,27.5 233.8788,26.9219 L233.8788,29.6406 Z "/><text fill="#000000" font-family="sans-serif" font-size="12" lengthAdjust="spacingAndGlyphs" textLength="102" x="244.91" y="28.1543">ILightRgbwEffect</text><line style="stroke: #A80036; stroke-width: 1.5;" x1="216.91" x2="348.91" y1="40" y2="40"/><line style="stroke: #A80036; stroke-width: 1.5;" x1="216.91" x2="348.91" y1="48" y2="48"/><!--MD5=[08f1264455d6986bbff031ba68fa3bd6]
reverse link ILightRgbwEffect to LightRgbwEffect--><path d="M266.45,74.85 C261.62,87.15 256.06,101.27 250.27,115.99 " fill="none" id="ILightRgbwEffect&lt;-LightRgbwEffect" style="stroke: #A80036; stroke-width: 1.0;"/><polygon fill="none" points="259.99,72.16,273.82,56.11,273.02,77.28,259.99,72.16" style="stroke: #A80036; stroke-width: 1.0;"/><!--MD5=[be96a53e3cd43eb764e805f11672c63a]
reverse link IEquatable`1 to LightRgbwEffect--><path d="M135.37,74.85 C140.21,87.15 145.76,101.27 151.55,115.99 " fill="none" id="IEquatable`1&lt;-LightRgbwEffect" style="stroke: #A80036; stroke-width: 1.0;"/><polygon fill="none" points="128.81,77.28,128,56.11,141.83,72.16,128.81,77.28" style="stroke: #A80036; stroke-width: 1.0;"/><text fill="#000000" font-family="sans-serif" font-size="13" lengthAdjust="spacingAndGlyphs" textLength="122" x="-6.6531" y="75.898">&lt;LightRgbwEffect&gt;</text><!--MD5=[4f25de5c2932bd6d389d9c2f9b5db1ef]
link LightRgbwEffect to ISet`1--><path d="M331.51,242.5 C331.51,242.5 338.2,242.5 341.03,242.5 " fill="none" id="LightRgbwEffect-ISet`1" style="stroke: #A80036; stroke-width: 1.0;"/><polygon fill="#A80036" points="354.26,242.5,345.26,238.5,349.26,242.5,345.26,246.5,354.26,242.5" style="stroke: #A80036; stroke-width: 1.0;"/><line style="stroke: #A80036; stroke-width: 1.0;" x1="349.26" x2="341.26" y1="242.5" y2="242.5"/><polygon fill="#FFFFFF" points="319.51,242.5,325.51,246.5,331.51,242.5,325.51,238.5,319.51,242.5" style="stroke: #A80036; stroke-width: 1.0;"/><text fill="#000000" font-family="sans-serif" font-size="13" lengthAdjust="spacingAndGlyphs" textLength="123" x="443.915" y="207.6024">EffectsSet&lt;string&gt;</text><!--MD5=[f6aa27246d4a07c9d0aad789e07ae9ab]
@startuml
class LightRgbwEffect {
    + LightRgbwEffect(controller:Controller)
    + MaxValue : int <<get>> = 255
    + ActiveEffect : string? <<get>> <<set>>
    + EffectSpeed : int <<get>> <<set>>
    + R : int <<get>> <<set>>
    + G : int <<get>> <<set>>
    + B : int <<get>> <<set>>
    + W : int <<get>> <<set>>
    + Brightness : int <<get>> <<set>>
    + State : bool <<get>> <<set>>
    + UpdateLight() : void
    + UpdateLight(brightness:int) : void
    + Equals(other:LightRgbwEffect?) : bool
    + <<override>> Equals(obj:object?) : bool
    + <<override>> GetHashCode() : int
    + Clone() : object
}
class "IEquatable`1"<T> {
}
class "ISet`1"<T> {
}
ILightRgbwEffect <|- - LightRgbwEffect
"IEquatable`1" "<LightRgbwEffect>" <|- - LightRgbwEffect
LightRgbwEffect o-> "EffectsSet<string>" "ISet`1"
@enduml

PlantUML version 1.2020.02(Sun Mar 01 10:22:07 GMT 2020)
(GPL source distribution)
Java Runtime: OpenJDK Runtime Environment
JVM: OpenJDK 64-Bit Server VM
Java Version: 11.0.9+11-Ubuntu-0ubuntu1
Operating System: Linux
Default Encoding: ANSI_X3.4-1968
Language: en
Country: US
--></g></svg>