<?xml version="1.0" encoding="UTF-8" standalone="no"?><svg xmlns="http://www.w3.org/2000/svg" xmlns:xlink="http://www.w3.org/1999/xlink" contentScriptType="application/ecmascript" contentStyleType="text/css" height="200px" preserveAspectRatio="none" style="width:486px;height:200px;" version="1.1" viewBox="0 0 486 200" width="486px" zoomAndPan="magnify"><defs><filter height="300%" id="fk8i6riv8m78u" width="300%" x="-1" y="-1"><feGaussianBlur result="blurOut" stdDeviation="2.0"/><feColorMatrix in="blurOut" result="blurOut2" type="matrix" values="0 0 0 0 0 0 0 0 0 0 0 0 0 0 0 0 0 0 .4 0"/><feOffset dx="4.0" dy="4.0" in="blurOut2" result="blurOut3"/><feBlend in="SourceGraphic" in2="blurOut3" mode="normal"/></filter></defs><g><!--MD5=[9668dd1af8c6b83576f667468a9bf416]
class BreathAppearanceCommand--><rect fill="#FEFECE" filter="url(#fk8i6riv8m78u)" height="73.6094" id="BreathAppearanceCommand" style="stroke: #A80036; stroke-width: 1.5;" width="469" x="6" y="116"/><ellipse cx="146.25" cy="132" fill="#ADD1B2" rx="11" ry="11" style="stroke: #A80036; stroke-width: 1.0;"/><path d="M149.2188,137.6406 Q148.6406,137.9375 148,138.0781 Q147.3594,138.2344 146.6563,138.2344 Q144.1563,138.2344 142.8281,136.5938 Q141.5156,134.9375 141.5156,131.8125 Q141.5156,128.6875 142.8281,127.0313 Q144.1563,125.375 146.6563,125.375 Q147.3594,125.375 148,125.5313 Q148.6563,125.6875 149.2188,125.9844 L149.2188,128.7031 Q148.5938,128.125 148,127.8594 Q147.4063,127.5781 146.7813,127.5781 Q145.4375,127.5781 144.75,128.6563 Q144.0625,129.7188 144.0625,131.8125 Q144.0625,133.9063 144.75,134.9844 Q145.4375,136.0469 146.7813,136.0469 Q147.4063,136.0469 148,135.7813 Q148.5938,135.5 149.2188,134.9219 L149.2188,137.6406 Z "/><text fill="#000000" font-family="sans-serif" font-size="12" lengthAdjust="spacingAndGlyphs" textLength="180" x="166.75" y="136.1543">BreathAppearanceCommand</text><line style="stroke: #A80036; stroke-width: 1.5;" x1="7" x2="474" y1="148" y2="148"/><ellipse cx="17" cy="159" fill="none" rx="3" ry="3" style="stroke: #038048; stroke-width: 1.0;"/><text fill="#000000" font-family="sans-serif" font-size="11" lengthAdjust="spacingAndGlyphs" textLength="138" x="26" y="162.2104">Message : string? «get»</text><line style="stroke: #A80036; stroke-width: 1.5;" x1="7" x2="474" y1="168.8047" y2="168.8047"/><ellipse cx="17" cy="179.8047" fill="#84BE84" rx="3" ry="3" style="stroke: #038048; stroke-width: 1.0;"/><text fill="#000000" font-family="sans-serif" font-size="11" lengthAdjust="spacingAndGlyphs" textLength="443" x="26" y="183.0151">BreathAppearanceCommand(r:int, g:int, b:int, w:int, brightness:int, speed:int)</text><!--MD5=[c658c127403a91e2d91e1e1fa9cd53be]
class IAppearanceCommand--><rect fill="#FEFECE" filter="url(#fk8i6riv8m78u)" height="48" id="IAppearanceCommand" style="stroke: #A80036; stroke-width: 1.5;" width="173" x="154" y="8"/><ellipse cx="169" cy="24" fill="#ADD1B2" rx="11" ry="11" style="stroke: #A80036; stroke-width: 1.0;"/><path d="M171.9688,29.6406 Q171.3906,29.9375 170.75,30.0781 Q170.1094,30.2344 169.4063,30.2344 Q166.9063,30.2344 165.5781,28.5938 Q164.2656,26.9375 164.2656,23.8125 Q164.2656,20.6875 165.5781,19.0313 Q166.9063,17.375 169.4063,17.375 Q170.1094,17.375 170.75,17.5313 Q171.4063,17.6875 171.9688,17.9844 L171.9688,20.7031 Q171.3438,20.125 170.75,19.8594 Q170.1563,19.5781 169.5313,19.5781 Q168.1875,19.5781 167.5,20.6563 Q166.8125,21.7188 166.8125,23.8125 Q166.8125,25.9063 167.5,26.9844 Q168.1875,28.0469 169.5313,28.0469 Q170.1563,28.0469 170.75,27.7813 Q171.3438,27.5 171.9688,26.9219 L171.9688,29.6406 Z "/><text fill="#000000" font-family="sans-serif" font-size="12" lengthAdjust="spacingAndGlyphs" textLength="141" x="183" y="28.1543">IAppearanceCommand</text><line style="stroke: #A80036; stroke-width: 1.5;" x1="155" x2="326" y1="40" y2="40"/><line style="stroke: #A80036; stroke-width: 1.5;" x1="155" x2="326" y1="48" y2="48"/><!--MD5=[894dac30bee84cb602f88aed94721630]
reverse link IAppearanceCommand to BreathAppearanceCommand--><path d="M240.5,76.43 C240.5,89.33 240.5,103.32 240.5,115.71 " fill="none" id="IAppearanceCommand&lt;-BreathAppearanceCommand" style="stroke: #A80036; stroke-width: 1.0;"/><polygon fill="none" points="233.5,76.23,240.5,56.23,247.5,76.23,233.5,76.23" style="stroke: #A80036; stroke-width: 1.0;"/><!--MD5=[08b5aa84d5cc8321a0f97bbec546a1ba]
@startuml
class BreathAppearanceCommand {
    + BreathAppearanceCommand(r:int, g:int, b:int, w:int, brightness:int, speed:int)
    + Message : string? <<get>>
}
IAppearanceCommand <|- - BreathAppearanceCommand
@enduml

PlantUML version 1.2020.02(Sun Mar 01 10:22:07 GMT 2020)
(GPL source distribution)
Java Runtime: OpenJDK Runtime Environment
JVM: OpenJDK 64-Bit Server VM
Java Version: 11.0.9+11-Ubuntu-0ubuntu1
Operating System: Linux
Default Encoding: ANSI_X3.4-1968
Language: en
Country: US
--></g></svg>