<?xml version="1.0" encoding="UTF-8" standalone="no"?><svg xmlns="http://www.w3.org/2000/svg" xmlns:xlink="http://www.w3.org/1999/xlink" contentScriptType="application/ecmascript" contentStyleType="text/css" height="200px" preserveAspectRatio="none" style="width:363px;height:200px;" version="1.1" viewBox="0 0 363 200" width="363px" zoomAndPan="magnify"><defs><filter height="300%" id="f1lodvblk46vyq" width="300%" x="-1" y="-1"><feGaussianBlur result="blurOut" stdDeviation="2.0"/><feColorMatrix in="blurOut" result="blurOut2" type="matrix" values="0 0 0 0 0 0 0 0 0 0 0 0 0 0 0 0 0 0 .4 0"/><feOffset dx="4.0" dy="4.0" in="blurOut2" result="blurOut3"/><feBlend in="SourceGraphic" in2="blurOut3" mode="normal"/></filter></defs><g><!--MD5=[0aebd84c4334413b9db550fc29f0b33d]
class RainbowAppearanceCommand--><rect fill="#FEFECE" filter="url(#f1lodvblk46vyq)" height="73.6094" id="RainbowAppearanceCommand" style="stroke: #A80036; stroke-width: 1.5;" width="346" x="6" y="116"/><ellipse cx="79.75" cy="132" fill="#ADD1B2" rx="11" ry="11" style="stroke: #A80036; stroke-width: 1.0;"/><path d="M82.7188,137.6406 Q82.1406,137.9375 81.5,138.0781 Q80.8594,138.2344 80.1563,138.2344 Q77.6563,138.2344 76.3281,136.5938 Q75.0156,134.9375 75.0156,131.8125 Q75.0156,128.6875 76.3281,127.0313 Q77.6563,125.375 80.1563,125.375 Q80.8594,125.375 81.5,125.5313 Q82.1563,125.6875 82.7188,125.9844 L82.7188,128.7031 Q82.0938,128.125 81.5,127.8594 Q80.9063,127.5781 80.2813,127.5781 Q78.9375,127.5781 78.25,128.6563 Q77.5625,129.7188 77.5625,131.8125 Q77.5625,133.9063 78.25,134.9844 Q78.9375,136.0469 80.2813,136.0469 Q80.9063,136.0469 81.5,135.7813 Q82.0938,135.5 82.7188,134.9219 L82.7188,137.6406 Z "/><text fill="#000000" font-family="sans-serif" font-size="12" lengthAdjust="spacingAndGlyphs" textLength="190" x="100.25" y="136.1543">RainbowAppearanceCommand</text><line style="stroke: #A80036; stroke-width: 1.5;" x1="7" x2="351" y1="148" y2="148"/><ellipse cx="17" cy="159" fill="none" rx="3" ry="3" style="stroke: #038048; stroke-width: 1.0;"/><text fill="#000000" font-family="sans-serif" font-size="11" lengthAdjust="spacingAndGlyphs" textLength="138" x="26" y="162.2104">Message : string? «get»</text><line style="stroke: #A80036; stroke-width: 1.5;" x1="7" x2="351" y1="168.8047" y2="168.8047"/><ellipse cx="17" cy="179.8047" fill="#84BE84" rx="3" ry="3" style="stroke: #038048; stroke-width: 1.0;"/><text fill="#000000" font-family="sans-serif" font-size="11" lengthAdjust="spacingAndGlyphs" textLength="320" x="26" y="183.0151">RainbowAppearanceCommand(brightness:int, speed:int)</text><!--MD5=[c658c127403a91e2d91e1e1fa9cd53be]
class IAppearanceCommand--><rect fill="#FEFECE" filter="url(#f1lodvblk46vyq)" height="48" id="IAppearanceCommand" style="stroke: #A80036; stroke-width: 1.5;" width="173" x="92.5" y="8"/><ellipse cx="107.5" cy="24" fill="#ADD1B2" rx="11" ry="11" style="stroke: #A80036; stroke-width: 1.0;"/><path d="M110.4688,29.6406 Q109.8906,29.9375 109.25,30.0781 Q108.6094,30.2344 107.9063,30.2344 Q105.4063,30.2344 104.0781,28.5938 Q102.7656,26.9375 102.7656,23.8125 Q102.7656,20.6875 104.0781,19.0313 Q105.4063,17.375 107.9063,17.375 Q108.6094,17.375 109.25,17.5313 Q109.9063,17.6875 110.4688,17.9844 L110.4688,20.7031 Q109.8438,20.125 109.25,19.8594 Q108.6563,19.5781 108.0313,19.5781 Q106.6875,19.5781 106,20.6563 Q105.3125,21.7188 105.3125,23.8125 Q105.3125,25.9063 106,26.9844 Q106.6875,28.0469 108.0313,28.0469 Q108.6563,28.0469 109.25,27.7813 Q109.8438,27.5 110.4688,26.9219 L110.4688,29.6406 Z "/><text fill="#000000" font-family="sans-serif" font-size="12" lengthAdjust="spacingAndGlyphs" textLength="141" x="121.5" y="28.1543">IAppearanceCommand</text><line style="stroke: #A80036; stroke-width: 1.5;" x1="93.5" x2="264.5" y1="40" y2="40"/><line style="stroke: #A80036; stroke-width: 1.5;" x1="93.5" x2="264.5" y1="48" y2="48"/><!--MD5=[de61fee5cc5dcc29b3fcd3f5781f7dd8]
reverse link IAppearanceCommand to RainbowAppearanceCommand--><path d="M179,76.43 C179,89.33 179,103.32 179,115.71 " fill="none" id="IAppearanceCommand&lt;-RainbowAppearanceCommand" style="stroke: #A80036; stroke-width: 1.0;"/><polygon fill="none" points="172,76.23,179,56.23,186,76.23,172,76.23" style="stroke: #A80036; stroke-width: 1.0;"/><!--MD5=[d524f9cc828388b0960e2916da3ee5ea]
@startuml
class RainbowAppearanceCommand {
    + RainbowAppearanceCommand(brightness:int, speed:int)
    + Message : string? <<get>>
}
IAppearanceCommand <|- - RainbowAppearanceCommand
@enduml

PlantUML version 1.2020.02(Sun Mar 01 10:22:07 GMT 2020)
(GPL source distribution)
Java Runtime: OpenJDK Runtime Environment
JVM: OpenJDK 64-Bit Server VM
Java Version: 11.0.9+11-Ubuntu-0ubuntu1
Operating System: Linux
Default Encoding: ANSI_X3.4-1968
Language: en
Country: US
--></g></svg>