<?xml version="1.0" encoding="UTF-8" standalone="no"?><svg xmlns="http://www.w3.org/2000/svg" xmlns:xlink="http://www.w3.org/1999/xlink" contentScriptType="application/ecmascript" contentStyleType="text/css" height="264px" preserveAspectRatio="none" style="width:353px;height:264px;" version="1.1" viewBox="0 0 353 264" width="353px" zoomAndPan="magnify"><defs><filter height="300%" id="fxmzvn9my4uqu" width="300%" x="-1" y="-1"><feGaussianBlur result="blurOut" stdDeviation="2.0"/><feColorMatrix in="blurOut" result="blurOut2" type="matrix" values="0 0 0 0 0 0 0 0 0 0 0 0 0 0 0 0 0 0 .4 0"/><feOffset dx="4.0" dy="4.0" in="blurOut2" result="blurOut3"/><feBlend in="SourceGraphic" in2="blurOut3" mode="normal"/></filter></defs><g><!--MD5=[8b589629f1bf612f85c399c2473777aa]
class SerialCom--><rect fill="#FEFECE" filter="url(#fxmzvn9my4uqu)" height="137.6328" id="SerialCom" style="stroke: #A80036; stroke-width: 1.5;" width="336" x="6" y="116"/><ellipse cx="138.75" cy="132" fill="#ADD1B2" rx="11" ry="11" style="stroke: #A80036; stroke-width: 1.0;"/><path d="M141.7188,137.6406 Q141.1406,137.9375 140.5,138.0781 Q139.8594,138.2344 139.1563,138.2344 Q136.6563,138.2344 135.3281,136.5938 Q134.0156,134.9375 134.0156,131.8125 Q134.0156,128.6875 135.3281,127.0313 Q136.6563,125.375 139.1563,125.375 Q139.8594,125.375 140.5,125.5313 Q141.1563,125.6875 141.7188,125.9844 L141.7188,128.7031 Q141.0938,128.125 140.5,127.8594 Q139.9063,127.5781 139.2813,127.5781 Q137.9375,127.5781 137.25,128.6563 Q136.5625,129.7188 136.5625,131.8125 Q136.5625,133.9063 137.25,134.9844 Q137.9375,136.0469 139.2813,136.0469 Q139.9063,136.0469 140.5,135.7813 Q141.0938,135.5 141.7188,134.9219 L141.7188,137.6406 Z "/><text fill="#000000" font-family="sans-serif" font-size="12" lengthAdjust="spacingAndGlyphs" textLength="62" x="159.25" y="136.1543">SerialCom</text><line style="stroke: #A80036; stroke-width: 1.5;" x1="7" x2="341" y1="148" y2="148"/><ellipse cx="17" cy="159" fill="none" rx="3" ry="3" style="stroke: #038048; stroke-width: 1.0;"/><text fill="#000000" font-family="sans-serif" font-size="11" lengthAdjust="spacingAndGlyphs" textLength="140" x="26" y="162.2104">Port : string «get» «set»</text><ellipse cx="17" cy="171.8047" fill="none" rx="3" ry="3" style="stroke: #038048; stroke-width: 1.0;"/><text fill="#000000" font-family="sans-serif" font-size="11" lengthAdjust="spacingAndGlyphs" textLength="153" x="26" y="175.0151">Running : bool «get» «set»</text><line style="stroke: #A80036; stroke-width: 1.5;" x1="7" x2="341" y1="181.6094" y2="181.6094"/><ellipse cx="17" cy="192.6094" fill="#84BE84" rx="3" ry="3" style="stroke: #038048; stroke-width: 1.0;"/><text fill="#000000" font-family="sans-serif" font-size="11" lengthAdjust="spacingAndGlyphs" textLength="181" x="26" y="195.8198">SerialCom(controller:Controller)</text><ellipse cx="17" cy="205.4141" fill="#84BE84" rx="3" ry="3" style="stroke: #038048; stroke-width: 1.0;"/><text fill="#000000" font-family="sans-serif" font-size="11" lengthAdjust="spacingAndGlyphs" textLength="71" x="26" y="208.6245">Start() : void</text><ellipse cx="17" cy="218.2188" fill="#84BE84" rx="3" ry="3" style="stroke: #038048; stroke-width: 1.0;"/><text fill="#000000" font-family="sans-serif" font-size="11" lengthAdjust="spacingAndGlyphs" textLength="111" x="26" y="221.4292">GetPorts() : string[]</text><ellipse cx="17" cy="231.0234" fill="#84BE84" rx="3" ry="3" style="stroke: #038048; stroke-width: 1.0;"/><text fill="#000000" font-family="sans-serif" font-size="11" lengthAdjust="spacingAndGlyphs" textLength="310" x="26" y="234.2339">AddCommand(command:IAppearanceCommand) : void</text><ellipse cx="17" cy="243.8281" fill="#84BE84" rx="3" ry="3" style="stroke: #038048; stroke-width: 1.0;"/><text fill="#000000" font-family="sans-serif" font-size="11" lengthAdjust="spacingAndGlyphs" textLength="70" x="26" y="247.0386">Stop() : bool</text><!--MD5=[76731f3e1e71ffe1670fc8cf02e43b15]
class ICommunicator--><rect fill="#FEFECE" filter="url(#fxmzvn9my4uqu)" height="48" id="ICommunicator" style="stroke: #A80036; stroke-width: 1.5;" width="125" x="111.5" y="8"/><ellipse cx="126.5" cy="24" fill="#ADD1B2" rx="11" ry="11" style="stroke: #A80036; stroke-width: 1.0;"/><path d="M129.4688,29.6406 Q128.8906,29.9375 128.25,30.0781 Q127.6094,30.2344 126.9063,30.2344 Q124.4063,30.2344 123.0781,28.5938 Q121.7656,26.9375 121.7656,23.8125 Q121.7656,20.6875 123.0781,19.0313 Q124.4063,17.375 126.9063,17.375 Q127.6094,17.375 128.25,17.5313 Q128.9063,17.6875 129.4688,17.9844 L129.4688,20.7031 Q128.8438,20.125 128.25,19.8594 Q127.6563,19.5781 127.0313,19.5781 Q125.6875,19.5781 125,20.6563 Q124.3125,21.7188 124.3125,23.8125 Q124.3125,25.9063 125,26.9844 Q125.6875,28.0469 127.0313,28.0469 Q127.6563,28.0469 128.25,27.7813 Q128.8438,27.5 129.4688,26.9219 L129.4688,29.6406 Z "/><text fill="#000000" font-family="sans-serif" font-size="12" lengthAdjust="spacingAndGlyphs" textLength="93" x="140.5" y="28.1543">ICommunicator</text><line style="stroke: #A80036; stroke-width: 1.5;" x1="112.5" x2="235.5" y1="40" y2="40"/><line style="stroke: #A80036; stroke-width: 1.5;" x1="112.5" x2="235.5" y1="48" y2="48"/><!--MD5=[c8b2fbfd1ce1f8ccebef64b2538f4b49]
reverse link ICommunicator to SerialCom--><path d="M174,76.56 C174,88.87 174,102.57 174,115.96 " fill="none" id="ICommunicator&lt;-SerialCom" style="stroke: #A80036; stroke-width: 1.0;"/><polygon fill="none" points="167,76.26,174,56.26,181,76.26,167,76.26" style="stroke: #A80036; stroke-width: 1.0;"/><!--MD5=[4d4a86b63ca7f375d24bae906b17d765]
@startuml
class SerialCom {
    + SerialCom(controller:Controller)
    + Port : string <<get>> <<set>>
    + Running : bool <<get>> <<set>>
    + Start() : void
    + GetPorts() : string[]
    + AddCommand(command:IAppearanceCommand) : void
    + Stop() : bool
}
ICommunicator <|- - SerialCom
@enduml

PlantUML version 1.2020.02(Sun Mar 01 10:22:07 GMT 2020)
(GPL source distribution)
Java Runtime: OpenJDK Runtime Environment
JVM: OpenJDK 64-Bit Server VM
Java Version: 11.0.9+11-Ubuntu-0ubuntu1
Operating System: Linux
Default Encoding: ANSI_X3.4-1968
Language: en
Country: US
--></g></svg>