<?xml version="1.0" encoding="UTF-8" standalone="no"?><svg xmlns="http://www.w3.org/2000/svg" xmlns:xlink="http://www.w3.org/1999/xlink" contentScriptType="application/ecmascript" contentStyleType="text/css" height="104px" preserveAspectRatio="none" style="width:221px;height:104px;" version="1.1" viewBox="0 0 221 104" width="221px" zoomAndPan="magnify"><defs><filter height="300%" id="f1roawvnjwxam5" width="300%" x="-1" y="-1"><feGaussianBlur result="blurOut" stdDeviation="2.0"/><feColorMatrix in="blurOut" result="blurOut2" type="matrix" values="0 0 0 0 0 0 0 0 0 0 0 0 0 0 0 0 0 0 .4 0"/><feOffset dx="4.0" dy="4.0" in="blurOut2" result="blurOut3"/><feBlend in="SourceGraphic" in2="blurOut3" mode="normal"/></filter></defs><g><!--MD5=[fd30ebae63834b0af383dc5eb7441f38]
class ActivePrograms--><rect fill="#FEFECE" filter="url(#f1roawvnjwxam5)" height="86.4141" id="ActivePrograms" style="stroke: #A80036; stroke-width: 1.5;" width="203" x="7" y="7"/><ellipse cx="55.75" cy="23" fill="#ADD1B2" rx="11" ry="11" style="stroke: #A80036; stroke-width: 1.0;"/><path d="M58.7188,28.6406 Q58.1406,28.9375 57.5,29.0781 Q56.8594,29.2344 56.1563,29.2344 Q53.6563,29.2344 52.3281,27.5938 Q51.0156,25.9375 51.0156,22.8125 Q51.0156,19.6875 52.3281,18.0313 Q53.6563,16.375 56.1563,16.375 Q56.8594,16.375 57.5,16.5313 Q58.1563,16.6875 58.7188,16.9844 L58.7188,19.7031 Q58.0938,19.125 57.5,18.8594 Q56.9063,18.5781 56.2813,18.5781 Q54.9375,18.5781 54.25,19.6563 Q53.5625,20.7188 53.5625,22.8125 Q53.5625,24.9063 54.25,25.9844 Q54.9375,27.0469 56.2813,27.0469 Q56.9063,27.0469 57.5,26.7813 Q58.0938,26.5 58.7188,25.9219 L58.7188,28.6406 Z "/><text fill="#000000" font-family="sans-serif" font-size="12" lengthAdjust="spacingAndGlyphs" textLength="97" x="76.25" y="27.1543">ActivePrograms</text><line style="stroke: #A80036; stroke-width: 1.5;" x1="8" x2="209" y1="39" y2="39"/><ellipse cx="18" cy="50" fill="none" rx="3" ry="3" style="stroke: #038048; stroke-width: 1.0;"/><text fill="#000000" font-family="sans-serif" font-size="11" lengthAdjust="spacingAndGlyphs" textLength="156" x="27" y="53.2104">ActiveApps : string[]? «get»</text><line style="stroke: #A80036; stroke-width: 1.5;" x1="8" x2="209" y1="59.8047" y2="59.8047"/><ellipse cx="18" cy="70.8047" fill="#84BE84" rx="3" ry="3" style="stroke: #038048; stroke-width: 1.0;"/><text fill="#000000" font-family="sans-serif" font-size="11" lengthAdjust="spacingAndGlyphs" text-decoration="underline" textLength="177" x="27" y="74.0151">GetInstance() : ActivePrograms</text><ellipse cx="18" cy="83.6094" fill="#84BE84" rx="3" ry="3" style="stroke: #038048; stroke-width: 1.0;"/><text fill="#000000" font-family="sans-serif" font-size="11" lengthAdjust="spacingAndGlyphs" textLength="69" x="27" y="86.8198">Stop() : void</text><!--MD5=[1dcaf200129747aa517367fe2ec6de2c]
@startuml
class ActivePrograms {
    + ActiveApps : string[]? <<get>>
    + {static} GetInstance() : ActivePrograms
    + Stop() : void
}
@enduml

PlantUML version 1.2020.02(Sun Mar 01 10:22:07 GMT 2020)
(GPL source distribution)
Java Runtime: OpenJDK Runtime Environment
JVM: OpenJDK 64-Bit Server VM
Java Version: 11.0.9+11-Ubuntu-0ubuntu1
Operating System: Linux
Default Encoding: ANSI_X3.4-1968
Language: en
Country: US
--></g></svg>