<?xml version="1.0" encoding="UTF-8" standalone="no"?><svg xmlns="http://www.w3.org/2000/svg" xmlns:xlink="http://www.w3.org/1999/xlink" contentScriptType="application/ecmascript" contentStyleType="text/css" height="84px" preserveAspectRatio="none" style="width:113px;height:84px;" version="1.1" viewBox="0 0 113 84" width="113px" zoomAndPan="magnify"><defs><filter height="300%" id="fze2h2v2z1mq2" width="300%" x="-1" y="-1"><feGaussianBlur result="blurOut" stdDeviation="2.0"/><feColorMatrix in="blurOut" result="blurOut2" type="matrix" values="0 0 0 0 0 0 0 0 0 0 0 0 0 0 0 0 0 0 .4 0"/><feOffset dx="4.0" dy="4.0" in="blurOut2" result="blurOut3"/><feBlend in="SourceGraphic" in2="blurOut3" mode="normal"/></filter></defs><g><!--MD5=[db3170b8313bf70303600a68db1112cb]
class Launcher--><rect fill="#FEFECE" filter="url(#fze2h2v2z1mq2)" height="66.7422" id="Launcher" style="stroke: #A80036; stroke-width: 1.5;" width="95" x="7" y="7"/><ellipse cx="24.25" cy="25.9688" fill="#ADD1B2" rx="11" ry="11" style="stroke: #A80036; stroke-width: 1.0;"/><path d="M27.2188,31.6094 Q26.6406,31.9063 26,32.0469 Q25.3594,32.2031 24.6563,32.2031 Q22.1563,32.2031 20.8281,30.5625 Q19.5156,28.9063 19.5156,25.7813 Q19.5156,22.6563 20.8281,21 Q22.1563,19.3438 24.6563,19.3438 Q25.3594,19.3438 26,19.5 Q26.6563,19.6563 27.2188,19.9531 L27.2188,22.6719 Q26.5938,22.0938 26,21.8281 Q25.4063,21.5469 24.7813,21.5469 Q23.4375,21.5469 22.75,22.625 Q22.0625,23.6875 22.0625,25.7813 Q22.0625,27.875 22.75,28.9531 Q23.4375,30.0156 24.7813,30.0156 Q25.4063,30.0156 26,29.75 Q26.5938,29.4688 27.2188,28.8906 L27.2188,31.6094 Z "/><text fill="#000000" font-family="sans-serif" font-size="12" font-style="italic" lengthAdjust="spacingAndGlyphs" textLength="48" x="43.75" y="23.1387">«static»</text><text fill="#000000" font-family="sans-serif" font-size="12" lengthAdjust="spacingAndGlyphs" textLength="58" x="38.75" y="37.1074">Launcher</text><line style="stroke: #A80036; stroke-width: 1.5;" x1="8" x2="101" y1="44.9375" y2="44.9375"/><line style="stroke: #A80036; stroke-width: 1.5;" x1="8" x2="101" y1="52.9375" y2="52.9375"/><ellipse cx="18" cy="63.9375" fill="#84BE84" rx="3" ry="3" style="stroke: #038048; stroke-width: 1.0;"/><text fill="#000000" font-family="sans-serif" font-size="11" lengthAdjust="spacingAndGlyphs" text-decoration="underline" textLength="69" x="27" y="67.1479">Main() : void</text><!--MD5=[140554b0cc1cb5d5d9cfa8fdc7311bc5]
@startuml
class Launcher <<static>> {
    + {static} Main() : void
}
@enduml

PlantUML version 1.2020.02(Sun Mar 01 10:22:07 GMT 2020)
(GPL source distribution)
Java Runtime: OpenJDK Runtime Environment
JVM: OpenJDK 64-Bit Server VM
Java Version: 11.0.9+11-Ubuntu-0ubuntu1
Operating System: Linux
Default Encoding: ANSI_X3.4-1968
Language: en
Country: US
--></g></svg>