<?xml version="1.0" encoding="UTF-8" standalone="no"?><svg xmlns="http://www.w3.org/2000/svg" xmlns:xlink="http://www.w3.org/1999/xlink" contentScriptType="application/ecmascript" contentStyleType="text/css" height="78px" preserveAspectRatio="none" style="width:357px;height:78px;" version="1.1" viewBox="0 0 357 78" width="357px" zoomAndPan="magnify"><defs><filter height="300%" id="f1xdg577km6lt1" width="300%" x="-1" y="-1"><feGaussianBlur result="blurOut" stdDeviation="2.0"/><feColorMatrix in="blurOut" result="blurOut2" type="matrix" values="0 0 0 0 0 0 0 0 0 0 0 0 0 0 0 0 0 0 .4 0"/><feOffset dx="4.0" dy="4.0" in="blurOut2" result="blurOut3"/><feBlend in="SourceGraphic" in2="blurOut3" mode="normal"/></filter></defs><g><!--MD5=[17c33879d80bb7c49631a67824c3ef87]
class TrayIconMenu--><rect fill="#FEFECE" filter="url(#f1xdg577km6lt1)" height="60.8047" id="TrayIconMenu" style="stroke: #A80036; stroke-width: 1.5;" width="339" x="7" y="7"/><ellipse cx="129.25" cy="23" fill="#ADD1B2" rx="11" ry="11" style="stroke: #A80036; stroke-width: 1.0;"/><path d="M132.2188,28.6406 Q131.6406,28.9375 131,29.0781 Q130.3594,29.2344 129.6563,29.2344 Q127.1563,29.2344 125.8281,27.5938 Q124.5156,25.9375 124.5156,22.8125 Q124.5156,19.6875 125.8281,18.0313 Q127.1563,16.375 129.6563,16.375 Q130.3594,16.375 131,16.5313 Q131.6563,16.6875 132.2188,16.9844 L132.2188,19.7031 Q131.5938,19.125 131,18.8594 Q130.4063,18.5781 129.7813,18.5781 Q128.4375,18.5781 127.75,19.6563 Q127.0625,20.7188 127.0625,22.8125 Q127.0625,24.9063 127.75,25.9844 Q128.4375,27.0469 129.7813,27.0469 Q130.4063,27.0469 131,26.7813 Q131.5938,26.5 132.2188,25.9219 L132.2188,28.6406 Z "/><text fill="#000000" font-family="sans-serif" font-size="12" lengthAdjust="spacingAndGlyphs" textLength="86" x="149.75" y="27.1543">TrayIconMenu</text><line style="stroke: #A80036; stroke-width: 1.5;" x1="8" x2="345" y1="39" y2="39"/><line style="stroke: #A80036; stroke-width: 1.5;" x1="8" x2="345" y1="47" y2="47"/><ellipse cx="18" cy="58" fill="#84BE84" rx="3" ry="3" style="stroke: #038048; stroke-width: 1.0;"/><text fill="#000000" font-family="sans-serif" font-size="11" lengthAdjust="spacingAndGlyphs" textLength="313" x="27" y="61.2104">ContextMenuThread(masterController:Controller) : void</text><!--MD5=[630feeceb91840a0c2925b6e71af4e04]
@startuml
class TrayIconMenu {
    + ContextMenuThread(masterController:Controller) : void
}
@enduml

PlantUML version 1.2020.02(Sun Mar 01 10:22:07 GMT 2020)
(GPL source distribution)
Java Runtime: OpenJDK Runtime Environment
JVM: OpenJDK 64-Bit Server VM
Java Version: 11.0.9+11-Ubuntu-0ubuntu1
Operating System: Linux
Default Encoding: ANSI_X3.4-1968
Language: en
Country: US
--></g></svg>