<?xml version="1.0" encoding="UTF-8" standalone="no"?><svg xmlns="http://www.w3.org/2000/svg" xmlns:xlink="http://www.w3.org/1999/xlink" contentScriptType="application/ecmascript" contentStyleType="text/css" height="104px" preserveAspectRatio="none" style="width:262px;height:104px;" version="1.1" viewBox="0 0 262 104" width="262px" zoomAndPan="magnify"><defs><filter height="300%" id="fzjy9ngan1fhf" width="300%" x="-1" y="-1"><feGaussianBlur result="blurOut" stdDeviation="2.0"/><feColorMatrix in="blurOut" result="blurOut2" type="matrix" values="0 0 0 0 0 0 0 0 0 0 0 0 0 0 0 0 0 0 .4 0"/><feOffset dx="4.0" dy="4.0" in="blurOut2" result="blurOut3"/><feBlend in="SourceGraphic" in2="blurOut3" mode="normal"/></filter></defs><g><!--MD5=[0ce2229b8b99a0b06f3a67484dc45f78]
class Volume--><rect fill="#FEFECE" filter="url(#fzjy9ngan1fhf)" height="86.4141" id="Volume" style="stroke: #A80036; stroke-width: 1.5;" width="244" x="7" y="7"/><ellipse cx="101.75" cy="23" fill="#ADD1B2" rx="11" ry="11" style="stroke: #A80036; stroke-width: 1.0;"/><path d="M104.7188,28.6406 Q104.1406,28.9375 103.5,29.0781 Q102.8594,29.2344 102.1563,29.2344 Q99.6563,29.2344 98.3281,27.5938 Q97.0156,25.9375 97.0156,22.8125 Q97.0156,19.6875 98.3281,18.0313 Q99.6563,16.375 102.1563,16.375 Q102.8594,16.375 103.5,16.5313 Q104.1563,16.6875 104.7188,16.9844 L104.7188,19.7031 Q104.0938,19.125 103.5,18.8594 Q102.9063,18.5781 102.2813,18.5781 Q100.9375,18.5781 100.25,19.6563 Q99.5625,20.7188 99.5625,22.8125 Q99.5625,24.9063 100.25,25.9844 Q100.9375,27.0469 102.2813,27.0469 Q102.9063,27.0469 103.5,26.7813 Q104.0938,26.5 104.7188,25.9219 L104.7188,28.6406 Z "/><text fill="#000000" font-family="sans-serif" font-size="12" lengthAdjust="spacingAndGlyphs" textLength="46" x="122.25" y="27.1543">Volume</text><line style="stroke: #A80036; stroke-width: 1.5;" x1="8" x2="250" y1="39" y2="39"/><ellipse cx="18" cy="50" fill="none" rx="3" ry="3" style="stroke: #038048; stroke-width: 1.0;"/><text fill="#000000" font-family="sans-serif" font-size="11" lengthAdjust="spacingAndGlyphs" textLength="142" x="27" y="53.2104">Muted : bool «get» «set»</text><line style="stroke: #A80036; stroke-width: 1.5;" x1="8" x2="250" y1="59.8047" y2="59.8047"/><ellipse cx="18" cy="70.8047" fill="#84BE84" rx="3" ry="3" style="stroke: #038048; stroke-width: 1.0;"/><text fill="#000000" font-family="sans-serif" font-size="11" lengthAdjust="spacingAndGlyphs" textLength="107" x="27" y="74.0151">GetVolume() : float</text><ellipse cx="18" cy="83.6094" fill="#84BE84" rx="3" ry="3" style="stroke: #038048; stroke-width: 1.0;"/><text fill="#000000" font-family="sans-serif" font-size="11" lengthAdjust="spacingAndGlyphs" textLength="218" x="27" y="86.8198">SetVolume(desiredVolume:float) : void</text><!--MD5=[a8d7c8f99e500f8ed5cc148fa4c74299]
@startuml
class Volume {
    + Muted : bool <<get>> <<set>>
    + GetVolume() : float
    + SetVolume(desiredVolume:float) : void
}
@enduml

PlantUML version 1.2020.02(Sun Mar 01 10:22:07 GMT 2020)
(GPL source distribution)
Java Runtime: OpenJDK Runtime Environment
JVM: OpenJDK 64-Bit Server VM
Java Version: 11.0.9+11-Ubuntu-0ubuntu1
Operating System: Linux
Default Encoding: ANSI_X3.4-1968
Language: en
Country: US
--></g></svg>