<?xml version="1.0" encoding="UTF-8" standalone="no"?><svg xmlns="http://www.w3.org/2000/svg" xmlns:xlink="http://www.w3.org/1999/xlink" contentScriptType="application/ecmascript" contentStyleType="text/css" height="346px" preserveAspectRatio="none" style="width:425px;height:346px;" version="1.1" viewBox="0 0 425 346" width="425px" zoomAndPan="magnify"><defs><filter height="300%" id="f33ao9klr8pa7" width="300%" x="-1" y="-1"><feGaussianBlur result="blurOut" stdDeviation="2.0"/><feColorMatrix in="blurOut" result="blurOut2" type="matrix" values="0 0 0 0 0 0 0 0 0 0 0 0 0 0 0 0 0 0 .4 0"/><feOffset dx="4.0" dy="4.0" in="blurOut2" result="blurOut3"/><feBlend in="SourceGraphic" in2="blurOut3" mode="normal"/></filter></defs><g><!--MD5=[230584ef3ad64cb09fdaa429e33fd87d]
class MqttLight--><rect fill="#FEFECE" filter="url(#f33ao9klr8pa7)" height="86.4141" id="MqttLight" style="stroke: #A80036; stroke-width: 1.5;" width="403" x="6" y="116"/><ellipse cx="174.25" cy="132" fill="#ADD1B2" rx="11" ry="11" style="stroke: #A80036; stroke-width: 1.0;"/><path d="M177.2188,137.6406 Q176.6406,137.9375 176,138.0781 Q175.3594,138.2344 174.6563,138.2344 Q172.1563,138.2344 170.8281,136.5938 Q169.5156,134.9375 169.5156,131.8125 Q169.5156,128.6875 170.8281,127.0313 Q172.1563,125.375 174.6563,125.375 Q175.3594,125.375 176,125.5313 Q176.6563,125.6875 177.2188,125.9844 L177.2188,128.7031 Q176.5938,128.125 176,127.8594 Q175.4063,127.5781 174.7813,127.5781 Q173.4375,127.5781 172.75,128.6563 Q172.0625,129.7188 172.0625,131.8125 Q172.0625,133.9063 172.75,134.9844 Q173.4375,136.0469 174.7813,136.0469 Q175.4063,136.0469 176,135.7813 Q176.5938,135.5 177.2188,134.9219 L177.2188,137.6406 Z "/><text fill="#000000" font-family="sans-serif" font-size="12" lengthAdjust="spacingAndGlyphs" textLength="58" x="194.75" y="136.1543">MqttLight</text><line style="stroke: #A80036; stroke-width: 1.5;" x1="7" x2="408" y1="148" y2="148"/><line style="stroke: #A80036; stroke-width: 1.5;" x1="7" x2="408" y1="156" y2="156"/><ellipse cx="17" cy="167" fill="#84BE84" rx="3" ry="3" style="stroke: #038048; stroke-width: 1.0;"/><text fill="#000000" font-family="sans-serif" font-size="11" lengthAdjust="spacingAndGlyphs" textLength="211" x="26" y="170.2104">MqttLight(callingController:Controller)</text><ellipse cx="17" cy="179.8047" fill="#84BE84" rx="3" ry="3" style="stroke: #038048; stroke-width: 1.0;"/><text fill="#000000" font-family="sans-serif" font-size="11" lengthAdjust="spacingAndGlyphs" textLength="377" x="26" y="183.0151">«override» IncomingCommands(command:InputCommands) : void</text><ellipse cx="17" cy="192.6094" fill="#84BE84" rx="3" ry="3" style="stroke: #038048; stroke-width: 1.0;"/><text fill="#000000" font-family="sans-serif" font-size="11" lengthAdjust="spacingAndGlyphs" textLength="163" x="26" y="195.8198">«override» Compute() : Task</text><!--MD5=[60d6b92408f98aed8df94d5c6e04aa63]
class State--><rect fill="#FEFECE" filter="url(#f33ao9klr8pa7)" height="73.6094" id="State" style="stroke: #A80036; stroke-width: 1.5;" width="73" x="96" y="262"/><ellipse cx="114.15" cy="278" fill="#EB937F" rx="11" ry="11" style="stroke: #A80036; stroke-width: 1.0;"/><path d="M118.2594,284 L110.5406,284 L110.5406,271.6094 L118.2594,271.6094 L118.2594,273.7656 L112.9938,273.7656 L112.9938,276.4375 L117.7594,276.4375 L117.7594,278.5938 L112.9938,278.5938 L112.9938,281.8438 L118.2594,281.8438 L118.2594,284 Z "/><text fill="#000000" font-family="sans-serif" font-size="12" lengthAdjust="spacingAndGlyphs" textLength="34" x="128.85" y="282.1543">State</text><line style="stroke: #A80036; stroke-width: 1.5;" x1="97" x2="168" y1="294" y2="294"/><text fill="#000000" font-family="sans-serif" font-size="11" lengthAdjust="spacingAndGlyphs" textLength="61" x="102" y="308.2104">LightState,</text><text fill="#000000" font-family="sans-serif" font-size="11" lengthAdjust="spacingAndGlyphs" textLength="36" x="102" y="321.0151">Other,</text><line style="stroke: #A80036; stroke-width: 1.5;" x1="97" x2="168" y1="327.6094" y2="327.6094"/><!--MD5=[6503e9964510e8b83256f8f5e7109bf1]
class Mode--><rect fill="#FEFECE" filter="url(#f33ao9klr8pa7)" height="48" id="Mode" style="stroke: #A80036; stroke-width: 1.5;" width="66" x="174.5" y="8"/><ellipse cx="189.5" cy="24" fill="#ADD1B2" rx="11" ry="11" style="stroke: #A80036; stroke-width: 1.0;"/><path d="M192.4688,29.6406 Q191.8906,29.9375 191.25,30.0781 Q190.6094,30.2344 189.9063,30.2344 Q187.4063,30.2344 186.0781,28.5938 Q184.7656,26.9375 184.7656,23.8125 Q184.7656,20.6875 186.0781,19.0313 Q187.4063,17.375 189.9063,17.375 Q190.6094,17.375 191.25,17.5313 Q191.9063,17.6875 192.4688,17.9844 L192.4688,20.7031 Q191.8438,20.125 191.25,19.8594 Q190.6563,19.5781 190.0313,19.5781 Q188.6875,19.5781 188,20.6563 Q187.3125,21.7188 187.3125,23.8125 Q187.3125,25.9063 188,26.9844 Q188.6875,28.0469 190.0313,28.0469 Q190.6563,28.0469 191.25,27.7813 Q191.8438,27.5 192.4688,26.9219 L192.4688,29.6406 Z "/><text fill="#000000" font-family="sans-serif" font-size="12" lengthAdjust="spacingAndGlyphs" textLength="34" x="203.5" y="28.1543">Mode</text><line style="stroke: #A80036; stroke-width: 1.5;" x1="175.5" x2="239.5" y1="40" y2="40"/><line style="stroke: #A80036; stroke-width: 1.5;" x1="175.5" x2="239.5" y1="48" y2="48"/><!--MD5=[57b847d312db8873508e5f4c1f161901]
class RgbwLightMqttClient--><rect fill="#FEFECE" filter="url(#f33ao9klr8pa7)" height="48" id="RgbwLightMqttClient" style="stroke: #A80036; stroke-width: 1.5;" width="158" x="204.5" y="275"/><ellipse cx="219.5" cy="291" fill="#ADD1B2" rx="11" ry="11" style="stroke: #A80036; stroke-width: 1.0;"/><path d="M222.4688,296.6406 Q221.8906,296.9375 221.25,297.0781 Q220.6094,297.2344 219.9063,297.2344 Q217.4063,297.2344 216.0781,295.5938 Q214.7656,293.9375 214.7656,290.8125 Q214.7656,287.6875 216.0781,286.0313 Q217.4063,284.375 219.9063,284.375 Q220.6094,284.375 221.25,284.5313 Q221.9063,284.6875 222.4688,284.9844 L222.4688,287.7031 Q221.8438,287.125 221.25,286.8594 Q220.6563,286.5781 220.0313,286.5781 Q218.6875,286.5781 218,287.6563 Q217.3125,288.7188 217.3125,290.8125 Q217.3125,292.9063 218,293.9844 Q218.6875,295.0469 220.0313,295.0469 Q220.6563,295.0469 221.25,294.7813 Q221.8438,294.5 222.4688,293.9219 L222.4688,296.6406 Z "/><text fill="#000000" font-family="sans-serif" font-size="12" lengthAdjust="spacingAndGlyphs" textLength="126" x="233.5" y="295.1543">RgbwLightMqttClient</text><line style="stroke: #A80036; stroke-width: 1.5;" x1="205.5" x2="361.5" y1="307" y2="307"/><line style="stroke: #A80036; stroke-width: 1.5;" x1="205.5" x2="361.5" y1="315" y2="315"/><!--MD5=[7eab258e716b526c524b6dc52593703a]
reverse link Mode to MqttLight--><path d="M207.5,76.27 C207.5,89.12 207.5,103.17 207.5,115.94 " fill="none" id="Mode&lt;-MqttLight" style="stroke: #A80036; stroke-width: 1.0;"/><polygon fill="none" points="200.5,76.22,207.5,56.22,214.5,76.22,200.5,76.22" style="stroke: #A80036; stroke-width: 1.0;"/><!--MD5=[9a1e453af280de30aeee6ce7f1154dc4]
link MqttLight to RgbwLightMqttClient--><path d="M230.72,202.15 C242.87,224.22 257.41,250.63 268.15,270.13 " fill="none" id="MqttLight-&gt;RgbwLightMqttClient" style="stroke: #A80036; stroke-width: 1.0;"/><polygon fill="#A80036" points="270.8,274.94,269.9639,265.1267,268.3888,270.5598,262.9556,268.9847,270.8,274.94" style="stroke: #A80036; stroke-width: 1.0;"/><text fill="#000000" font-family="sans-serif" font-size="13" lengthAdjust="spacingAndGlyphs" textLength="129" x="284.0738" y="263.9367">RgbwLightMqttClient</text><!--MD5=[dc08611143bf301ddd1115a21a47220d]
reverse link MqttLight to State--><path d="M177.34,215.5 C168.88,231.06 159.91,247.57 152.23,261.7 " fill="none" id="MqttLight&lt;-State" style="stroke: #A80036; stroke-width: 1.0;"/><ellipse cx="180.7736" cy="209.181" fill="#FFFFFF" rx="8" ry="8" style="stroke: #A80036; stroke-width: 1.0;"/><line style="stroke: #A80036; stroke-width: 1.0;" x1="176.9572" x2="184.59" y1="216.212" y2="202.15"/><line style="stroke: #A80036; stroke-width: 1.0;" x1="173.7426" x2="187.8046" y1="205.3646" y2="212.9974"/><!--MD5=[6cf6a1edc622fc96b1dbbeea38d19a65]
@startuml
class MqttLight {
    + MqttLight(callingController:Controller)
    + <<override>> IncomingCommands(command:InputCommands) : void
    + <<override>> Compute() : Task
}
enum State {
    LightState,
    Other,
}
Mode <|- - MqttLight
MqttLight - -> "RgbwLightMqttClient" RgbwLightMqttClient
MqttLight +- - State
@enduml

PlantUML version 1.2020.02(Sun Mar 01 10:22:07 GMT 2020)
(GPL source distribution)
Java Runtime: OpenJDK Runtime Environment
JVM: OpenJDK 64-Bit Server VM
Java Version: 11.0.9+11-Ubuntu-0ubuntu1
Operating System: Linux
Default Encoding: ANSI_X3.4-1968
Language: en
Country: US
--></g></svg>