<?xml version="1.0" encoding="UTF-8" standalone="no"?><svg xmlns="http://www.w3.org/2000/svg" xmlns:xlink="http://www.w3.org/1999/xlink" contentScriptType="application/ecmascript" contentStyleType="text/css" height="277px" preserveAspectRatio="none" style="width:240px;height:277px;" version="1.1" viewBox="0 0 240 277" width="240px" zoomAndPan="magnify"><defs><filter height="300%" id="fhfjiwr8qyzq1" width="300%" x="-1" y="-1"><feGaussianBlur result="blurOut" stdDeviation="2.0"/><feColorMatrix in="blurOut" result="blurOut2" type="matrix" values="0 0 0 0 0 0 0 0 0 0 0 0 0 0 0 0 0 0 .4 0"/><feOffset dx="4.0" dy="4.0" in="blurOut2" result="blurOut3"/><feBlend in="SourceGraphic" in2="blurOut3" mode="normal"/></filter></defs><g><!--MD5=[fd864ccf002c8b0f41664ff342654946]
class ILight--><rect fill="#FEFECE" filter="url(#fhfjiwr8qyzq1)" height="150.4375" id="ILight" style="stroke: #A80036; stroke-width: 1.5;" width="223" x="6" y="116"/><ellipse cx="95.75" cy="132" fill="#B4A7E5" rx="11" ry="11" style="stroke: #A80036; stroke-width: 1.0;"/><path d="M91.6719,127.7656 L91.6719,125.6094 L99.0625,125.6094 L99.0625,127.7656 L96.5938,127.7656 L96.5938,135.8438 L99.0625,135.8438 L99.0625,138 L91.6719,138 L91.6719,135.8438 L94.1406,135.8438 L94.1406,127.7656 L91.6719,127.7656 Z "/><text fill="#000000" font-family="sans-serif" font-size="12" font-style="italic" lengthAdjust="spacingAndGlyphs" textLength="35" x="116.25" y="136.1543">ILight</text><line style="stroke: #A80036; stroke-width: 1.5;" x1="7" x2="228" y1="148" y2="148"/><text fill="#000000" font-family="sans-serif" font-size="11" lengthAdjust="spacingAndGlyphs" textLength="115" x="12" y="162.2104">MaxValue : int «get»</text><text fill="#000000" font-family="sans-serif" font-size="11" lengthAdjust="spacingAndGlyphs" textLength="160" x="12" y="175.0151">Brightness : int «get» «set»</text><text fill="#000000" font-family="sans-serif" font-size="11" lengthAdjust="spacingAndGlyphs" textLength="138" x="12" y="187.8198">State : bool «get» «set»</text><line style="stroke: #A80036; stroke-width: 1.5;" x1="7" x2="228" y1="194.4141" y2="194.4141"/><text fill="#000000" font-family="sans-serif" font-size="11" lengthAdjust="spacingAndGlyphs" textLength="110" x="12" y="208.6245">UpdateLight() : void</text><text fill="#000000" font-family="sans-serif" font-size="11" lengthAdjust="spacingAndGlyphs" textLength="189" x="12" y="221.4292">UpdateLight(brightness:int) : void</text><text fill="#000000" font-family="sans-serif" font-size="11" lengthAdjust="spacingAndGlyphs" textLength="211" x="12" y="234.2339">Equals(other:LightRgbwEffect?) : bool</text><text fill="#000000" font-family="sans-serif" font-size="11" lengthAdjust="spacingAndGlyphs" textLength="143" x="12" y="247.0386">Equals(obj:object?) : bool</text><text fill="#000000" font-family="sans-serif" font-size="11" lengthAdjust="spacingAndGlyphs" textLength="112" x="12" y="259.8433">GetHashCode() : int</text><!--MD5=[cca651f3000d8bfa5cc03fe1235fc747]
class ICloneable--><rect fill="#FEFECE" filter="url(#fhfjiwr8qyzq1)" height="48" id="ICloneable" style="stroke: #A80036; stroke-width: 1.5;" width="97" x="69" y="8"/><ellipse cx="84" cy="24" fill="#ADD1B2" rx="11" ry="11" style="stroke: #A80036; stroke-width: 1.0;"/><path d="M86.9688,29.6406 Q86.3906,29.9375 85.75,30.0781 Q85.1094,30.2344 84.4063,30.2344 Q81.9063,30.2344 80.5781,28.5938 Q79.2656,26.9375 79.2656,23.8125 Q79.2656,20.6875 80.5781,19.0313 Q81.9063,17.375 84.4063,17.375 Q85.1094,17.375 85.75,17.5313 Q86.4063,17.6875 86.9688,17.9844 L86.9688,20.7031 Q86.3438,20.125 85.75,19.8594 Q85.1563,19.5781 84.5313,19.5781 Q83.1875,19.5781 82.5,20.6563 Q81.8125,21.7188 81.8125,23.8125 Q81.8125,25.9063 82.5,26.9844 Q83.1875,28.0469 84.5313,28.0469 Q85.1563,28.0469 85.75,27.7813 Q86.3438,27.5 86.9688,26.9219 L86.9688,29.6406 Z "/><text fill="#000000" font-family="sans-serif" font-size="12" lengthAdjust="spacingAndGlyphs" textLength="65" x="98" y="28.1543">ICloneable</text><line style="stroke: #A80036; stroke-width: 1.5;" x1="70" x2="165" y1="40" y2="40"/><line style="stroke: #A80036; stroke-width: 1.5;" x1="70" x2="165" y1="48" y2="48"/><!--MD5=[4d6c4fa1b4175e4e508ef971c567e3a4]
reverse link ICloneable to ILight--><path d="M117.5,76.38 C117.5,88.67 117.5,102.4 117.5,115.96 " fill="none" id="ICloneable&lt;-ILight" style="stroke: #A80036; stroke-width: 1.0;"/><polygon fill="none" points="110.5,76.17,117.5,56.17,124.5,76.17,110.5,76.17" style="stroke: #A80036; stroke-width: 1.0;"/><!--MD5=[3ed728213049cc2b728ed1245e1246b4]
@startuml
interface ILight {
    MaxValue : int <<get>>
    Brightness : int <<get>> <<set>>
    State : bool <<get>> <<set>>
    UpdateLight() : void
    UpdateLight(brightness:int) : void
    Equals(other:LightRgbwEffect?) : bool
    Equals(obj:object?) : bool
    GetHashCode() : int
}
ICloneable <|- - ILight
@enduml

PlantUML version 1.2020.02(Sun Mar 01 10:22:07 GMT 2020)
(GPL source distribution)
Java Runtime: OpenJDK Runtime Environment
JVM: OpenJDK 64-Bit Server VM
Java Version: 11.0.9+11-Ubuntu-0ubuntu1
Operating System: Linux
Default Encoding: ANSI_X3.4-1968
Language: en
Country: US
--></g></svg>