<?xml version="1.0" encoding="UTF-8" standalone="no"?><svg xmlns="http://www.w3.org/2000/svg" xmlns:xlink="http://www.w3.org/1999/xlink" contentScriptType="application/ecmascript" contentStyleType="text/css" height="175px" preserveAspectRatio="none" style="width:118px;height:175px;" version="1.1" viewBox="0 0 118 175" width="118px" zoomAndPan="magnify"><defs><filter height="300%" id="f1y0yrksz7tpus" width="300%" x="-1" y="-1"><feGaussianBlur result="blurOut" stdDeviation="2.0"/><feColorMatrix in="blurOut" result="blurOut2" type="matrix" values="0 0 0 0 0 0 0 0 0 0 0 0 0 0 0 0 0 0 .4 0"/><feOffset dx="4.0" dy="4.0" in="blurOut2" result="blurOut3"/><feBlend in="SourceGraphic" in2="blurOut3" mode="normal"/></filter></defs><g><!--MD5=[fba3ade2ddaaac9c2db31e63f287199f]
class ILightRgbw--><rect fill="#FEFECE" filter="url(#f1y0yrksz7tpus)" height="48" id="ILightRgbw" style="stroke: #A80036; stroke-width: 1.5;" width="101" x="6" y="116"/><ellipse cx="21" cy="132" fill="#B4A7E5" rx="11" ry="11" style="stroke: #A80036; stroke-width: 1.0;"/><path d="M16.9219,127.7656 L16.9219,125.6094 L24.3125,125.6094 L24.3125,127.7656 L21.8438,127.7656 L21.8438,135.8438 L24.3125,135.8438 L24.3125,138 L16.9219,138 L16.9219,135.8438 L19.3906,135.8438 L19.3906,127.7656 L16.9219,127.7656 Z "/><text fill="#000000" font-family="sans-serif" font-size="12" font-style="italic" lengthAdjust="spacingAndGlyphs" textLength="69" x="35" y="136.1543">ILightRgbw</text><line style="stroke: #A80036; stroke-width: 1.5;" x1="7" x2="106" y1="148" y2="148"/><line style="stroke: #A80036; stroke-width: 1.5;" x1="7" x2="106" y1="156" y2="156"/><!--MD5=[cbd08a60f16d53d37fa1e73fa9d04003]
class ILightRgb--><rect fill="#FEFECE" filter="url(#f1y0yrksz7tpus)" height="48" id="ILightRgb" style="stroke: #A80036; stroke-width: 1.5;" width="89" x="12" y="8"/><ellipse cx="27" cy="24" fill="#ADD1B2" rx="11" ry="11" style="stroke: #A80036; stroke-width: 1.0;"/><path d="M29.9688,29.6406 Q29.3906,29.9375 28.75,30.0781 Q28.1094,30.2344 27.4063,30.2344 Q24.9063,30.2344 23.5781,28.5938 Q22.2656,26.9375 22.2656,23.8125 Q22.2656,20.6875 23.5781,19.0313 Q24.9063,17.375 27.4063,17.375 Q28.1094,17.375 28.75,17.5313 Q29.4063,17.6875 29.9688,17.9844 L29.9688,20.7031 Q29.3438,20.125 28.75,19.8594 Q28.1563,19.5781 27.5313,19.5781 Q26.1875,19.5781 25.5,20.6563 Q24.8125,21.7188 24.8125,23.8125 Q24.8125,25.9063 25.5,26.9844 Q26.1875,28.0469 27.5313,28.0469 Q28.1563,28.0469 28.75,27.7813 Q29.3438,27.5 29.9688,26.9219 L29.9688,29.6406 Z "/><text fill="#000000" font-family="sans-serif" font-size="12" lengthAdjust="spacingAndGlyphs" textLength="57" x="41" y="28.1543">ILightRgb</text><line style="stroke: #A80036; stroke-width: 1.5;" x1="13" x2="100" y1="40" y2="40"/><line style="stroke: #A80036; stroke-width: 1.5;" x1="13" x2="100" y1="48" y2="48"/><!--MD5=[9be7c442d6b97a8becd85767c9aec982]
reverse link ILightRgb to ILightRgbw--><path d="M56.5,76.02 C56.5,89.58 56.5,104.04 56.5,115.68 " fill="none" id="ILightRgb&lt;-ILightRgbw" style="stroke: #A80036; stroke-width: 1.0;"/><polygon fill="none" points="49.5,76,56.5,56,63.5,76,49.5,76" style="stroke: #A80036; stroke-width: 1.0;"/><!--MD5=[baf42d3665a2bfb10ea6ed14433d2edc]
@startuml
interface ILightRgbw {
}
ILightRgb <|- - ILightRgbw
@enduml

PlantUML version 1.2020.02(Sun Mar 01 10:22:07 GMT 2020)
(GPL source distribution)
Java Runtime: OpenJDK Runtime Environment
JVM: OpenJDK 64-Bit Server VM
Java Version: 11.0.9+11-Ubuntu-0ubuntu1
Operating System: Linux
Default Encoding: ANSI_X3.4-1968
Language: en
Country: US
--></g></svg>