<?xml version="1.0" encoding="UTF-8" standalone="no"?><svg xmlns="http://www.w3.org/2000/svg" xmlns:xlink="http://www.w3.org/1999/xlink" contentScriptType="application/ecmascript" contentStyleType="text/css" height="187px" preserveAspectRatio="none" style="width:136px;height:187px;" version="1.1" viewBox="0 0 136 187" width="136px" zoomAndPan="magnify"><defs><filter height="300%" id="f1m9xar0osolax" width="300%" x="-1" y="-1"><feGaussianBlur result="blurOut" stdDeviation="2.0"/><feColorMatrix in="blurOut" result="blurOut2" type="matrix" values="0 0 0 0 0 0 0 0 0 0 0 0 0 0 0 0 0 0 .4 0"/><feOffset dx="4.0" dy="4.0" in="blurOut2" result="blurOut3"/><feBlend in="SourceGraphic" in2="blurOut3" mode="normal"/></filter></defs><g><!--MD5=[fba3ade2ddaaac9c2db31e63f287199f]
class ILightRgbw--><rect fill="#FEFECE" filter="url(#f1m9xar0osolax)" height="60.8047" id="ILightRgbw" style="stroke: #A80036; stroke-width: 1.5;" width="119" x="6" y="116"/><ellipse cx="29.1" cy="132" fill="#B4A7E5" rx="11" ry="11" style="stroke: #A80036; stroke-width: 1.0;"/><path d="M25.0219,127.7656 L25.0219,125.6094 L32.4125,125.6094 L32.4125,127.7656 L29.9438,127.7656 L29.9438,135.8438 L32.4125,135.8438 L32.4125,138 L25.0219,138 L25.0219,135.8438 L27.4906,135.8438 L27.4906,127.7656 L25.0219,127.7656 Z "/><text fill="#000000" font-family="sans-serif" font-size="12" font-style="italic" lengthAdjust="spacingAndGlyphs" textLength="69" x="44.9" y="136.1543">ILightRgbw</text><line style="stroke: #A80036; stroke-width: 1.5;" x1="7" x2="124" y1="148" y2="148"/><text fill="#000000" font-family="sans-serif" font-size="11" lengthAdjust="spacingAndGlyphs" textLength="107" x="12" y="162.2104">W : int «get» «set»</text><line style="stroke: #A80036; stroke-width: 1.5;" x1="7" x2="124" y1="168.8047" y2="168.8047"/><!--MD5=[cbd08a60f16d53d37fa1e73fa9d04003]
class ILightRgb--><rect fill="#FEFECE" filter="url(#f1m9xar0osolax)" height="48" id="ILightRgb" style="stroke: #A80036; stroke-width: 1.5;" width="89" x="21" y="8"/><ellipse cx="36" cy="24" fill="#ADD1B2" rx="11" ry="11" style="stroke: #A80036; stroke-width: 1.0;"/><path d="M38.9688,29.6406 Q38.3906,29.9375 37.75,30.0781 Q37.1094,30.2344 36.4063,30.2344 Q33.9063,30.2344 32.5781,28.5938 Q31.2656,26.9375 31.2656,23.8125 Q31.2656,20.6875 32.5781,19.0313 Q33.9063,17.375 36.4063,17.375 Q37.1094,17.375 37.75,17.5313 Q38.4063,17.6875 38.9688,17.9844 L38.9688,20.7031 Q38.3438,20.125 37.75,19.8594 Q37.1563,19.5781 36.5313,19.5781 Q35.1875,19.5781 34.5,20.6563 Q33.8125,21.7188 33.8125,23.8125 Q33.8125,25.9063 34.5,26.9844 Q35.1875,28.0469 36.5313,28.0469 Q37.1563,28.0469 37.75,27.7813 Q38.3438,27.5 38.9688,26.9219 L38.9688,29.6406 Z "/><text fill="#000000" font-family="sans-serif" font-size="12" lengthAdjust="spacingAndGlyphs" textLength="57" x="50" y="28.1543">ILightRgb</text><line style="stroke: #A80036; stroke-width: 1.5;" x1="22" x2="109" y1="40" y2="40"/><line style="stroke: #A80036; stroke-width: 1.5;" x1="22" x2="109" y1="48" y2="48"/><!--MD5=[9be7c442d6b97a8becd85767c9aec982]
reverse link ILightRgb to ILightRgbw--><path d="M65.5,76.11 C65.5,89.31 65.5,103.54 65.5,115.65 " fill="none" id="ILightRgb&lt;-ILightRgbw" style="stroke: #A80036; stroke-width: 1.0;"/><polygon fill="none" points="58.5,76.04,65.5,56.04,72.5,76.04,58.5,76.04" style="stroke: #A80036; stroke-width: 1.0;"/><!--MD5=[d45d421953bb2dc573ae1c703aa1b324]
@startuml
interface ILightRgbw {
    W : int <<get>> <<set>>
}
ILightRgb <|- - ILightRgbw
@enduml

PlantUML version 1.2020.02(Sun Mar 01 10:22:07 GMT 2020)
(GPL source distribution)
Java Runtime: OpenJDK Runtime Environment
JVM: OpenJDK 64-Bit Server VM
Java Version: 11.0.9+11-Ubuntu-0ubuntu1
Operating System: Linux
Default Encoding: ANSI_X3.4-1968
Language: en
Country: US
--></g></svg>