<?xml version="1.0" encoding="UTF-8" standalone="no"?><svg xmlns="http://www.w3.org/2000/svg" xmlns:xlink="http://www.w3.org/1999/xlink" contentScriptType="application/ecmascript" contentStyleType="text/css" height="309px" preserveAspectRatio="none" style="width:255px;height:309px;" version="1.1" viewBox="0 0 255 309" width="255px" zoomAndPan="magnify"><defs><filter height="300%" id="f1wa8ioxfpjcc3" width="300%" x="-1" y="-1"><feGaussianBlur result="blurOut" stdDeviation="2.0"/><feColorMatrix in="blurOut" result="blurOut2" type="matrix" values="0 0 0 0 0 0 0 0 0 0 0 0 0 0 0 0 0 0 .4 0"/><feOffset dx="4.0" dy="4.0" in="blurOut2" result="blurOut3"/><feBlend in="SourceGraphic" in2="blurOut3" mode="normal"/></filter></defs><g><!--MD5=[dd79f330a92d5b789420c06852a418f6]
class ILightEffect--><rect fill="#FEFECE" filter="url(#f1wa8ioxfpjcc3)" height="73.6094" id="ILightEffect" style="stroke: #A80036; stroke-width: 1.5;" width="200" x="44" y="116"/><ellipse cx="104.25" cy="132" fill="#B4A7E5" rx="11" ry="11" style="stroke: #A80036; stroke-width: 1.0;"/><path d="M100.1719,127.7656 L100.1719,125.6094 L107.5625,125.6094 L107.5625,127.7656 L105.0938,127.7656 L105.0938,135.8438 L107.5625,135.8438 L107.5625,138 L100.1719,138 L100.1719,135.8438 L102.6406,135.8438 L102.6406,127.7656 L100.1719,127.7656 Z "/><text fill="#000000" font-family="sans-serif" font-size="12" font-style="italic" lengthAdjust="spacingAndGlyphs" textLength="71" x="124.75" y="136.1543">ILightEffect</text><line style="stroke: #A80036; stroke-width: 1.5;" x1="45" x2="243" y1="148" y2="148"/><text fill="#000000" font-family="sans-serif" font-size="11" lengthAdjust="spacingAndGlyphs" textLength="188" x="50" y="162.2104">ActiveEffect : string? «get» «set»</text><text fill="#000000" font-family="sans-serif" font-size="11" lengthAdjust="spacingAndGlyphs" textLength="166" x="50" y="175.0151">EffectSpeed : int «get» «set»</text><line style="stroke: #A80036; stroke-width: 1.5;" x1="45" x2="243" y1="181.6094" y2="181.6094"/><!--MD5=[27b0d9beeca77c404db434f05f36e655]
class ISet`1--><rect fill="#FEFECE" filter="url(#f1wa8ioxfpjcc3)" height="48" id="ISet`1" style="stroke: #A80036; stroke-width: 1.5;" width="81" x="103.5" y="250"/><ellipse cx="118.5" cy="266" fill="#ADD1B2" rx="11" ry="11" style="stroke: #A80036; stroke-width: 1.0;"/><path d="M121.4688,271.6406 Q120.8906,271.9375 120.25,272.0781 Q119.6094,272.2344 118.9063,272.2344 Q116.4063,272.2344 115.0781,270.5938 Q113.7656,268.9375 113.7656,265.8125 Q113.7656,262.6875 115.0781,261.0313 Q116.4063,259.375 118.9063,259.375 Q119.6094,259.375 120.25,259.5313 Q120.9063,259.6875 121.4688,259.9844 L121.4688,262.7031 Q120.8438,262.125 120.25,261.8594 Q119.6563,261.5781 119.0313,261.5781 Q117.6875,261.5781 117,262.6563 Q116.3125,263.7188 116.3125,265.8125 Q116.3125,267.9063 117,268.9844 Q117.6875,270.0469 119.0313,270.0469 Q119.6563,270.0469 120.25,269.7813 Q120.8438,269.5 121.4688,268.9219 L121.4688,271.6406 Z "/><text fill="#000000" font-family="sans-serif" font-size="12" lengthAdjust="spacingAndGlyphs" textLength="38" x="132.5" y="270.1543">ISet`1</text><rect fill="#FFFFFF" height="15.9688" style="stroke: #000000; stroke-width: 1.0; stroke-dasharray: 2.0,2.0;" width="9" x="178.5" y="247"/><text fill="#000000" font-family="sans-serif" font-size="12" font-style="italic" lengthAdjust="spacingAndGlyphs" textLength="7" x="179.5" y="259.1387">T</text><line style="stroke: #A80036; stroke-width: 1.5;" x1="104.5" x2="183.5" y1="282" y2="282"/><line style="stroke: #A80036; stroke-width: 1.5;" x1="104.5" x2="183.5" y1="290" y2="290"/><!--MD5=[fd864ccf002c8b0f41664ff342654946]
class ILight--><rect fill="#FEFECE" filter="url(#f1wa8ioxfpjcc3)" height="48" id="ILight" style="stroke: #A80036; stroke-width: 1.5;" width="65" x="111.5" y="8"/><ellipse cx="126.5" cy="24" fill="#ADD1B2" rx="11" ry="11" style="stroke: #A80036; stroke-width: 1.0;"/><path d="M129.4688,29.6406 Q128.8906,29.9375 128.25,30.0781 Q127.6094,30.2344 126.9063,30.2344 Q124.4063,30.2344 123.0781,28.5938 Q121.7656,26.9375 121.7656,23.8125 Q121.7656,20.6875 123.0781,19.0313 Q124.4063,17.375 126.9063,17.375 Q127.6094,17.375 128.25,17.5313 Q128.9063,17.6875 129.4688,17.9844 L129.4688,20.7031 Q128.8438,20.125 128.25,19.8594 Q127.6563,19.5781 127.0313,19.5781 Q125.6875,19.5781 125,20.6563 Q124.3125,21.7188 124.3125,23.8125 Q124.3125,25.9063 125,26.9844 Q125.6875,28.0469 127.0313,28.0469 Q127.6563,28.0469 128.25,27.7813 Q128.8438,27.5 129.4688,26.9219 L129.4688,29.6406 Z "/><text fill="#000000" font-family="sans-serif" font-size="12" lengthAdjust="spacingAndGlyphs" textLength="33" x="140.5" y="28.1543">ILight</text><line style="stroke: #A80036; stroke-width: 1.5;" x1="112.5" x2="175.5" y1="40" y2="40"/><line style="stroke: #A80036; stroke-width: 1.5;" x1="112.5" x2="175.5" y1="48" y2="48"/><!--MD5=[59260a9ba699b7e5edbd71e5793227f3]
reverse link ILight to ILightEffect--><path d="M144,76.43 C144,89.33 144,103.32 144,115.71 " fill="none" id="ILight&lt;-ILightEffect" style="stroke: #A80036; stroke-width: 1.0;"/><polygon fill="none" points="137,76.23,144,56.23,151,76.23,137,76.23" style="stroke: #A80036; stroke-width: 1.0;"/><!--MD5=[1f45db8eab9d8113533b442086c19621]
link ILightEffect to ISet`1--><path d="M144,190.03 C144,207.48 144,228.15 144,244.49 " fill="none" id="ILightEffect-&gt;ISet`1" style="stroke: #A80036; stroke-width: 1.0;"/><polygon fill="#A80036" points="144,249.85,148,240.85,144,244.85,140,240.85,144,249.85" style="stroke: #A80036; stroke-width: 1.0;"/><text fill="#000000" font-family="sans-serif" font-size="13" lengthAdjust="spacingAndGlyphs" textLength="123" x="5.2406" y="238.8236">EffectsSet&lt;string&gt;</text><!--MD5=[aebe98e4368e271a73823f5cbedfa7b1]
@startuml
interface ILightEffect {
    ActiveEffect : string? <<get>> <<set>>
    EffectSpeed : int <<get>> <<set>>
}
class "ISet`1"<T> {
}
ILight <|- - ILightEffect
ILightEffect - -> "EffectsSet<string>" "ISet`1"
@enduml

PlantUML version 1.2020.02(Sun Mar 01 10:22:07 GMT 2020)
(GPL source distribution)
Java Runtime: OpenJDK Runtime Environment
JVM: OpenJDK 64-Bit Server VM
Java Version: 11.0.9+11-Ubuntu-0ubuntu1
Operating System: Linux
Default Encoding: ANSI_X3.4-1968
Language: en
Country: US
--></g></svg>