<?xml version="1.0" encoding="UTF-8" standalone="no"?><svg xmlns="http://www.w3.org/2000/svg" xmlns:xlink="http://www.w3.org/1999/xlink" contentScriptType="application/ecmascript" contentStyleType="text/css" height="175px" preserveAspectRatio="none" style="width:120px;height:175px;" version="1.1" viewBox="0 0 120 175" width="120px" zoomAndPan="magnify"><defs><filter height="300%" id="f1114qimsmlnf" width="300%" x="-1" y="-1"><feGaussianBlur result="blurOut" stdDeviation="2.0"/><feColorMatrix in="blurOut" result="blurOut2" type="matrix" values="0 0 0 0 0 0 0 0 0 0 0 0 0 0 0 0 0 0 .4 0"/><feOffset dx="4.0" dy="4.0" in="blurOut2" result="blurOut3"/><feBlend in="SourceGraphic" in2="blurOut3" mode="normal"/></filter></defs><g><!--MD5=[dd79f330a92d5b789420c06852a418f6]
class ILightEffect--><rect fill="#FEFECE" filter="url(#f1114qimsmlnf)" height="48" id="ILightEffect" style="stroke: #A80036; stroke-width: 1.5;" width="103" x="6" y="116"/><ellipse cx="21" cy="132" fill="#B4A7E5" rx="11" ry="11" style="stroke: #A80036; stroke-width: 1.0;"/><path d="M16.9219,127.7656 L16.9219,125.6094 L24.3125,125.6094 L24.3125,127.7656 L21.8438,127.7656 L21.8438,135.8438 L24.3125,135.8438 L24.3125,138 L16.9219,138 L16.9219,135.8438 L19.3906,135.8438 L19.3906,127.7656 L16.9219,127.7656 Z "/><text fill="#000000" font-family="sans-serif" font-size="12" font-style="italic" lengthAdjust="spacingAndGlyphs" textLength="71" x="35" y="136.1543">ILightEffect</text><line style="stroke: #A80036; stroke-width: 1.5;" x1="7" x2="108" y1="148" y2="148"/><line style="stroke: #A80036; stroke-width: 1.5;" x1="7" x2="108" y1="156" y2="156"/><!--MD5=[fd864ccf002c8b0f41664ff342654946]
class ILight--><rect fill="#FEFECE" filter="url(#f1114qimsmlnf)" height="48" id="ILight" style="stroke: #A80036; stroke-width: 1.5;" width="65" x="25" y="8"/><ellipse cx="40" cy="24" fill="#ADD1B2" rx="11" ry="11" style="stroke: #A80036; stroke-width: 1.0;"/><path d="M42.9688,29.6406 Q42.3906,29.9375 41.75,30.0781 Q41.1094,30.2344 40.4063,30.2344 Q37.9063,30.2344 36.5781,28.5938 Q35.2656,26.9375 35.2656,23.8125 Q35.2656,20.6875 36.5781,19.0313 Q37.9063,17.375 40.4063,17.375 Q41.1094,17.375 41.75,17.5313 Q42.4063,17.6875 42.9688,17.9844 L42.9688,20.7031 Q42.3438,20.125 41.75,19.8594 Q41.1563,19.5781 40.5313,19.5781 Q39.1875,19.5781 38.5,20.6563 Q37.8125,21.7188 37.8125,23.8125 Q37.8125,25.9063 38.5,26.9844 Q39.1875,28.0469 40.5313,28.0469 Q41.1563,28.0469 41.75,27.7813 Q42.3438,27.5 42.9688,26.9219 L42.9688,29.6406 Z "/><text fill="#000000" font-family="sans-serif" font-size="12" lengthAdjust="spacingAndGlyphs" textLength="33" x="54" y="28.1543">ILight</text><line style="stroke: #A80036; stroke-width: 1.5;" x1="26" x2="89" y1="40" y2="40"/><line style="stroke: #A80036; stroke-width: 1.5;" x1="26" x2="89" y1="48" y2="48"/><!--MD5=[59260a9ba699b7e5edbd71e5793227f3]
reverse link ILight to ILightEffect--><path d="M57.5,76.02 C57.5,89.58 57.5,104.04 57.5,115.68 " fill="none" id="ILight&lt;-ILightEffect" style="stroke: #A80036; stroke-width: 1.0;"/><polygon fill="none" points="50.5,76,57.5,56,64.5,76,50.5,76" style="stroke: #A80036; stroke-width: 1.0;"/><!--MD5=[f2a0d74398f4f6d339207d722a79f13c]
@startuml
interface ILightEffect {
}
ILight <|- - ILightEffect
@enduml

PlantUML version 1.2020.02(Sun Mar 01 10:22:07 GMT 2020)
(GPL source distribution)
Java Runtime: OpenJDK Runtime Environment
JVM: OpenJDK 64-Bit Server VM
Java Version: 11.0.9+11-Ubuntu-0ubuntu1
Operating System: Linux
Default Encoding: ANSI_X3.4-1968
Language: en
Country: US
--></g></svg>