<?xml version="1.0" encoding="UTF-8" standalone="no"?><svg xmlns="http://www.w3.org/2000/svg" xmlns:xlink="http://www.w3.org/1999/xlink" contentScriptType="application/ecmascript" contentStyleType="text/css" height="175px" preserveAspectRatio="none" style="width:251px;height:175px;" version="1.1" viewBox="0 0 251 175" width="251px" zoomAndPan="magnify"><defs><filter height="300%" id="fplo4yo77j4a6" width="300%" x="-1" y="-1"><feGaussianBlur result="blurOut" stdDeviation="2.0"/><feColorMatrix in="blurOut" result="blurOut2" type="matrix" values="0 0 0 0 0 0 0 0 0 0 0 0 0 0 0 0 0 0 .4 0"/><feOffset dx="4.0" dy="4.0" in="blurOut2" result="blurOut3"/><feBlend in="SourceGraphic" in2="blurOut3" mode="normal"/></filter></defs><g><!--MD5=[b9a6b2d14929c056c4c119d2e2b4f492]
class ILightRgbwEffect--><rect fill="#FEFECE" filter="url(#fplo4yo77j4a6)" height="48" id="ILightRgbwEffect" style="stroke: #A80036; stroke-width: 1.5;" width="137" x="53.5" y="116"/><ellipse cx="68.5" cy="132" fill="#B4A7E5" rx="11" ry="11" style="stroke: #A80036; stroke-width: 1.0;"/><path d="M64.4219,127.7656 L64.4219,125.6094 L71.8125,125.6094 L71.8125,127.7656 L69.3438,127.7656 L69.3438,135.8438 L71.8125,135.8438 L71.8125,138 L64.4219,138 L64.4219,135.8438 L66.8906,135.8438 L66.8906,127.7656 L64.4219,127.7656 Z "/><text fill="#000000" font-family="sans-serif" font-size="12" font-style="italic" lengthAdjust="spacingAndGlyphs" textLength="105" x="82.5" y="136.1543">ILightRgbwEffect</text><line style="stroke: #A80036; stroke-width: 1.5;" x1="54.5" x2="189.5" y1="148" y2="148"/><line style="stroke: #A80036; stroke-width: 1.5;" x1="54.5" x2="189.5" y1="156" y2="156"/><!--MD5=[fba3ade2ddaaac9c2db31e63f287199f]
class ILightRgbw--><rect fill="#FEFECE" filter="url(#fplo4yo77j4a6)" height="48" id="ILightRgbw" style="stroke: #A80036; stroke-width: 1.5;" width="98" x="6" y="8"/><ellipse cx="21" cy="24" fill="#ADD1B2" rx="11" ry="11" style="stroke: #A80036; stroke-width: 1.0;"/><path d="M23.9688,29.6406 Q23.3906,29.9375 22.75,30.0781 Q22.1094,30.2344 21.4063,30.2344 Q18.9063,30.2344 17.5781,28.5938 Q16.2656,26.9375 16.2656,23.8125 Q16.2656,20.6875 17.5781,19.0313 Q18.9063,17.375 21.4063,17.375 Q22.1094,17.375 22.75,17.5313 Q23.4063,17.6875 23.9688,17.9844 L23.9688,20.7031 Q23.3438,20.125 22.75,19.8594 Q22.1563,19.5781 21.5313,19.5781 Q20.1875,19.5781 19.5,20.6563 Q18.8125,21.7188 18.8125,23.8125 Q18.8125,25.9063 19.5,26.9844 Q20.1875,28.0469 21.5313,28.0469 Q22.1563,28.0469 22.75,27.7813 Q23.3438,27.5 23.9688,26.9219 L23.9688,29.6406 Z "/><text fill="#000000" font-family="sans-serif" font-size="12" lengthAdjust="spacingAndGlyphs" textLength="66" x="35" y="28.1543">ILightRgbw</text><line style="stroke: #A80036; stroke-width: 1.5;" x1="7" x2="103" y1="40" y2="40"/><line style="stroke: #A80036; stroke-width: 1.5;" x1="7" x2="103" y1="48" y2="48"/><!--MD5=[dd79f330a92d5b789420c06852a418f6]
class ILightEffect--><rect fill="#FEFECE" filter="url(#fplo4yo77j4a6)" height="48" id="ILightEffect" style="stroke: #A80036; stroke-width: 1.5;" width="101" x="139.5" y="8"/><ellipse cx="154.5" cy="24" fill="#ADD1B2" rx="11" ry="11" style="stroke: #A80036; stroke-width: 1.0;"/><path d="M157.4688,29.6406 Q156.8906,29.9375 156.25,30.0781 Q155.6094,30.2344 154.9063,30.2344 Q152.4063,30.2344 151.0781,28.5938 Q149.7656,26.9375 149.7656,23.8125 Q149.7656,20.6875 151.0781,19.0313 Q152.4063,17.375 154.9063,17.375 Q155.6094,17.375 156.25,17.5313 Q156.9063,17.6875 157.4688,17.9844 L157.4688,20.7031 Q156.8438,20.125 156.25,19.8594 Q155.6563,19.5781 155.0313,19.5781 Q153.6875,19.5781 153,20.6563 Q152.3125,21.7188 152.3125,23.8125 Q152.3125,25.9063 153,26.9844 Q153.6875,28.0469 155.0313,28.0469 Q155.6563,28.0469 156.25,27.7813 Q156.8438,27.5 157.4688,26.9219 L157.4688,29.6406 Z "/><text fill="#000000" font-family="sans-serif" font-size="12" lengthAdjust="spacingAndGlyphs" textLength="69" x="168.5" y="28.1543">ILightEffect</text><line style="stroke: #A80036; stroke-width: 1.5;" x1="140.5" x2="239.5" y1="40" y2="40"/><line style="stroke: #A80036; stroke-width: 1.5;" x1="140.5" x2="239.5" y1="48" y2="48"/><!--MD5=[a869a0568de577f6c74d3be134e2a109]
reverse link ILightRgbw to ILightRgbwEffect--><path d="M80.37,73.13 C89.45,87.5 99.38,103.21 107.26,115.68 " fill="none" id="ILightRgbw&lt;-ILightRgbwEffect" style="stroke: #A80036; stroke-width: 1.0;"/><polygon fill="none" points="74.31,76.65,69.54,56,86.14,69.17,74.31,76.65" style="stroke: #A80036; stroke-width: 1.0;"/><!--MD5=[3ba6b8aa26fbf8e7dd4eff2b45711c91]
reverse link ILightEffect to ILightRgbwEffect--><path d="M164.25,73.13 C155.04,87.5 144.96,103.21 136.96,115.68 " fill="none" id="ILightEffect&lt;-ILightRgbwEffect" style="stroke: #A80036; stroke-width: 1.0;"/><polygon fill="none" points="158.55,69.05,175.25,56,170.34,76.61,158.55,69.05" style="stroke: #A80036; stroke-width: 1.0;"/><!--MD5=[c911db538eacc31ba84ee19c98a4060b]
@startuml
interface ILightRgbwEffect {
}
ILightRgbw <|- - ILightRgbwEffect
ILightEffect <|- - ILightRgbwEffect
@enduml

PlantUML version 1.2020.02(Sun Mar 01 10:22:07 GMT 2020)
(GPL source distribution)
Java Runtime: OpenJDK Runtime Environment
JVM: OpenJDK 64-Bit Server VM
Java Version: 11.0.9+11-Ubuntu-0ubuntu1
Operating System: Linux
Default Encoding: ANSI_X3.4-1968
Language: en
Country: US
--></g></svg>