<?xml version="1.0" encoding="UTF-8" standalone="no"?><svg xmlns="http://www.w3.org/2000/svg" xmlns:xlink="http://www.w3.org/1999/xlink" contentScriptType="application/ecmascript" contentStyleType="text/css" height="91px" preserveAspectRatio="none" style="width:760px;height:91px;" version="1.1" viewBox="0 0 760 91" width="760px" zoomAndPan="magnify"><defs><filter height="300%" id="f17f1zk1cr3w4b" width="300%" x="-1" y="-1"><feGaussianBlur result="blurOut" stdDeviation="2.0"/><feColorMatrix in="blurOut" result="blurOut2" type="matrix" values="0 0 0 0 0 0 0 0 0 0 0 0 0 0 0 0 0 0 .4 0"/><feOffset dx="4.0" dy="4.0" in="blurOut2" result="blurOut3"/><feBlend in="SourceGraphic" in2="blurOut3" mode="normal"/></filter></defs><g><!--MD5=[57b847d312db8873508e5f4c1f161901]
class RgbwLightMqttClient--><rect fill="#FEFECE" filter="url(#f17f1zk1cr3w4b)" height="73.6094" id="RgbwLightMqttClient" style="stroke: #A80036; stroke-width: 1.5;" width="742" x="7" y="7"/><ellipse cx="310.75" cy="23" fill="#ADD1B2" rx="11" ry="11" style="stroke: #A80036; stroke-width: 1.0;"/><path d="M313.7188,28.6406 Q313.1406,28.9375 312.5,29.0781 Q311.8594,29.2344 311.1563,29.2344 Q308.6563,29.2344 307.3281,27.5938 Q306.0156,25.9375 306.0156,22.8125 Q306.0156,19.6875 307.3281,18.0313 Q308.6563,16.375 311.1563,16.375 Q311.8594,16.375 312.5,16.5313 Q313.1563,16.6875 313.7188,16.9844 L313.7188,19.7031 Q313.0938,19.125 312.5,18.8594 Q311.9063,18.5781 311.2813,18.5781 Q309.9375,18.5781 309.25,19.6563 Q308.5625,20.7188 308.5625,22.8125 Q308.5625,24.9063 309.25,25.9844 Q309.9375,27.0469 311.2813,27.0469 Q311.9063,27.0469 312.5,26.7813 Q313.0938,26.5 313.7188,25.9219 L313.7188,28.6406 Z "/><text fill="#000000" font-family="sans-serif" font-size="12" lengthAdjust="spacingAndGlyphs" textLength="126" x="331.25" y="27.1543">RgbwLightMqttClient</text><line style="stroke: #A80036; stroke-width: 1.5;" x1="8" x2="748" y1="39" y2="39"/><line style="stroke: #A80036; stroke-width: 1.5;" x1="8" x2="748" y1="47" y2="47"/><ellipse cx="18" cy="58" fill="#84BE84" rx="3" ry="3" style="stroke: #038048; stroke-width: 1.0;"/><text fill="#000000" font-family="sans-serif" font-size="11" lengthAdjust="spacingAndGlyphs" textLength="716" x="27" y="61.2104">RgbwLightMqttClient(brokerIpAddress:string, brokerPort:int, clientId:string, baseTopic:string, lightRgbwEffect:ILightRgbwEffect)</text><ellipse cx="18" cy="70.8047" fill="#84BE84" rx="3" ry="3" style="stroke: #038048; stroke-width: 1.0;"/><text fill="#000000" font-family="sans-serif" font-size="11" lengthAdjust="spacingAndGlyphs" textLength="397" x="27" y="74.0151">«async» UpdateState(selectedLightRgbwEffect:ILightRgbwEffect) : void</text><!--MD5=[54f56f89cf0bddfa62aa9a83ffd0c330]
@startuml
class RgbwLightMqttClient {
    + RgbwLightMqttClient(brokerIpAddress:string, brokerPort:int, clientId:string, baseTopic:string, lightRgbwEffect:ILightRgbwEffect)
    + <<async>> UpdateState(selectedLightRgbwEffect:ILightRgbwEffect) : void
}
@enduml

PlantUML version 1.2020.02(Sun Mar 01 10:22:07 GMT 2020)
(GPL source distribution)
Java Runtime: OpenJDK Runtime Environment
JVM: OpenJDK 64-Bit Server VM
Java Version: 11.0.9+11-Ubuntu-0ubuntu1
Operating System: Linux
Default Encoding: ANSI_X3.4-1968
Language: en
Country: US
--></g></svg>