<?xml version="1.0" encoding="UTF-8" standalone="no"?><svg xmlns="http://www.w3.org/2000/svg" xmlns:xlink="http://www.w3.org/1999/xlink" contentScriptType="application/ecmascript" contentStyleType="text/css" height="200px" preserveAspectRatio="none" style="width:484px;height:200px;" version="1.1" viewBox="0 0 484 200" width="484px" zoomAndPan="magnify"><defs><filter height="300%" id="fqtz1lo8q8tv4" width="300%" x="-1" y="-1"><feGaussianBlur result="blurOut" stdDeviation="2.0"/><feColorMatrix in="blurOut" result="blurOut2" type="matrix" values="0 0 0 0 0 0 0 0 0 0 0 0 0 0 0 0 0 0 .4 0"/><feOffset dx="4.0" dy="4.0" in="blurOut2" result="blurOut3"/><feBlend in="SourceGraphic" in2="blurOut3" mode="normal"/></filter></defs><g><!--MD5=[25cac4d06e88131248d8094baa96643a]
class ChaseAppearanceCommand--><rect fill="#FEFECE" filter="url(#fqtz1lo8q8tv4)" height="73.6094" id="ChaseAppearanceCommand" style="stroke: #A80036; stroke-width: 1.5;" width="467" x="6" y="116"/><ellipse cx="146.75" cy="132" fill="#ADD1B2" rx="11" ry="11" style="stroke: #A80036; stroke-width: 1.0;"/><path d="M149.7188,137.6406 Q149.1406,137.9375 148.5,138.0781 Q147.8594,138.2344 147.1563,138.2344 Q144.6563,138.2344 143.3281,136.5938 Q142.0156,134.9375 142.0156,131.8125 Q142.0156,128.6875 143.3281,127.0313 Q144.6563,125.375 147.1563,125.375 Q147.8594,125.375 148.5,125.5313 Q149.1563,125.6875 149.7188,125.9844 L149.7188,128.7031 Q149.0938,128.125 148.5,127.8594 Q147.9063,127.5781 147.2813,127.5781 Q145.9375,127.5781 145.25,128.6563 Q144.5625,129.7188 144.5625,131.8125 Q144.5625,133.9063 145.25,134.9844 Q145.9375,136.0469 147.2813,136.0469 Q147.9063,136.0469 148.5,135.7813 Q149.0938,135.5 149.7188,134.9219 L149.7188,137.6406 Z "/><text fill="#000000" font-family="sans-serif" font-size="12" lengthAdjust="spacingAndGlyphs" textLength="177" x="167.25" y="136.1543">ChaseAppearanceCommand</text><line style="stroke: #A80036; stroke-width: 1.5;" x1="7" x2="472" y1="148" y2="148"/><ellipse cx="17" cy="159" fill="none" rx="3" ry="3" style="stroke: #038048; stroke-width: 1.0;"/><text fill="#000000" font-family="sans-serif" font-size="11" lengthAdjust="spacingAndGlyphs" textLength="138" x="26" y="162.2104">Message : string? «get»</text><line style="stroke: #A80036; stroke-width: 1.5;" x1="7" x2="472" y1="168.8047" y2="168.8047"/><ellipse cx="17" cy="179.8047" fill="#84BE84" rx="3" ry="3" style="stroke: #038048; stroke-width: 1.0;"/><text fill="#000000" font-family="sans-serif" font-size="11" lengthAdjust="spacingAndGlyphs" textLength="441" x="26" y="183.0151">ChaseAppearanceCommand(r:int, g:int, b:int, w:int, brightness:int, speed:int)</text><!--MD5=[c658c127403a91e2d91e1e1fa9cd53be]
class IAppearanceCommand--><rect fill="#FEFECE" filter="url(#fqtz1lo8q8tv4)" height="48" id="IAppearanceCommand" style="stroke: #A80036; stroke-width: 1.5;" width="173" x="153" y="8"/><ellipse cx="168" cy="24" fill="#ADD1B2" rx="11" ry="11" style="stroke: #A80036; stroke-width: 1.0;"/><path d="M170.9688,29.6406 Q170.3906,29.9375 169.75,30.0781 Q169.1094,30.2344 168.4063,30.2344 Q165.9063,30.2344 164.5781,28.5938 Q163.2656,26.9375 163.2656,23.8125 Q163.2656,20.6875 164.5781,19.0313 Q165.9063,17.375 168.4063,17.375 Q169.1094,17.375 169.75,17.5313 Q170.4063,17.6875 170.9688,17.9844 L170.9688,20.7031 Q170.3438,20.125 169.75,19.8594 Q169.1563,19.5781 168.5313,19.5781 Q167.1875,19.5781 166.5,20.6563 Q165.8125,21.7188 165.8125,23.8125 Q165.8125,25.9063 166.5,26.9844 Q167.1875,28.0469 168.5313,28.0469 Q169.1563,28.0469 169.75,27.7813 Q170.3438,27.5 170.9688,26.9219 L170.9688,29.6406 Z "/><text fill="#000000" font-family="sans-serif" font-size="12" lengthAdjust="spacingAndGlyphs" textLength="141" x="182" y="28.1543">IAppearanceCommand</text><line style="stroke: #A80036; stroke-width: 1.5;" x1="154" x2="325" y1="40" y2="40"/><line style="stroke: #A80036; stroke-width: 1.5;" x1="154" x2="325" y1="48" y2="48"/><!--MD5=[f11087a5a6c6787c6e58a8d8f176b11e]
reverse link IAppearanceCommand to ChaseAppearanceCommand--><path d="M239.5,76.43 C239.5,89.33 239.5,103.32 239.5,115.71 " fill="none" id="IAppearanceCommand&lt;-ChaseAppearanceCommand" style="stroke: #A80036; stroke-width: 1.0;"/><polygon fill="none" points="232.5,76.23,239.5,56.23,246.5,76.23,232.5,76.23" style="stroke: #A80036; stroke-width: 1.0;"/><!--MD5=[7da587dbdcd97edcc369a955efa068a4]
@startuml
class ChaseAppearanceCommand {
    + ChaseAppearanceCommand(r:int, g:int, b:int, w:int, brightness:int, speed:int)
    + Message : string? <<get>>
}
IAppearanceCommand <|- - ChaseAppearanceCommand
@enduml

PlantUML version 1.2020.02(Sun Mar 01 10:22:07 GMT 2020)
(GPL source distribution)
Java Runtime: OpenJDK Runtime Environment
JVM: OpenJDK 64-Bit Server VM
Java Version: 11.0.9+11-Ubuntu-0ubuntu1
Operating System: Linux
Default Encoding: ANSI_X3.4-1968
Language: en
Country: US
--></g></svg>