<?xml version="1.0" encoding="UTF-8" standalone="no"?><svg xmlns="http://www.w3.org/2000/svg" xmlns:xlink="http://www.w3.org/1999/xlink" contentScriptType="application/ecmascript" contentStyleType="text/css" height="200px" preserveAspectRatio="none" style="width:552px;height:200px;" version="1.1" viewBox="0 0 552 200" width="552px" zoomAndPan="magnify"><defs><filter height="300%" id="fkwkkskksqz3u" width="300%" x="-1" y="-1"><feGaussianBlur result="blurOut" stdDeviation="2.0"/><feColorMatrix in="blurOut" result="blurOut2" type="matrix" values="0 0 0 0 0 0 0 0 0 0 0 0 0 0 0 0 0 0 .4 0"/><feOffset dx="4.0" dy="4.0" in="blurOut2" result="blurOut3"/><feBlend in="SourceGraphic" in2="blurOut3" mode="normal"/></filter></defs><g><!--MD5=[c28feaaa3132726c7673ee12f6f4856b]
class PercentageAppearanceCommand--><rect fill="#FEFECE" filter="url(#fkwkkskksqz3u)" height="73.6094" id="PercentageAppearanceCommand" style="stroke: #A80036; stroke-width: 1.5;" width="535" x="6" y="116"/><ellipse cx="163.75" cy="132" fill="#ADD1B2" rx="11" ry="11" style="stroke: #A80036; stroke-width: 1.0;"/><path d="M166.7188,137.6406 Q166.1406,137.9375 165.5,138.0781 Q164.8594,138.2344 164.1563,138.2344 Q161.6563,138.2344 160.3281,136.5938 Q159.0156,134.9375 159.0156,131.8125 Q159.0156,128.6875 160.3281,127.0313 Q161.6563,125.375 164.1563,125.375 Q164.8594,125.375 165.5,125.5313 Q166.1563,125.6875 166.7188,125.9844 L166.7188,128.7031 Q166.0938,128.125 165.5,127.8594 Q164.9063,127.5781 164.2813,127.5781 Q162.9375,127.5781 162.25,128.6563 Q161.5625,129.7188 161.5625,131.8125 Q161.5625,133.9063 162.25,134.9844 Q162.9375,136.0469 164.2813,136.0469 Q164.9063,136.0469 165.5,135.7813 Q166.0938,135.5 166.7188,134.9219 L166.7188,137.6406 Z "/><text fill="#000000" font-family="sans-serif" font-size="12" lengthAdjust="spacingAndGlyphs" textLength="211" x="184.25" y="136.1543">PercentageAppearanceCommand</text><line style="stroke: #A80036; stroke-width: 1.5;" x1="7" x2="540" y1="148" y2="148"/><ellipse cx="17" cy="159" fill="none" rx="3" ry="3" style="stroke: #038048; stroke-width: 1.0;"/><text fill="#000000" font-family="sans-serif" font-size="11" lengthAdjust="spacingAndGlyphs" textLength="138" x="26" y="162.2104">Message : string? «get»</text><line style="stroke: #A80036; stroke-width: 1.5;" x1="7" x2="540" y1="168.8047" y2="168.8047"/><ellipse cx="17" cy="179.8047" fill="#84BE84" rx="3" ry="3" style="stroke: #038048; stroke-width: 1.0;"/><text fill="#000000" font-family="sans-serif" font-size="11" lengthAdjust="spacingAndGlyphs" textLength="509" x="26" y="183.0151">PercentageAppearanceCommand(r:int, g:int, b:int, w:int, brightness:int, percentage:float)</text><!--MD5=[c658c127403a91e2d91e1e1fa9cd53be]
class IAppearanceCommand--><rect fill="#FEFECE" filter="url(#fkwkkskksqz3u)" height="48" id="IAppearanceCommand" style="stroke: #A80036; stroke-width: 1.5;" width="173" x="187" y="8"/><ellipse cx="202" cy="24" fill="#ADD1B2" rx="11" ry="11" style="stroke: #A80036; stroke-width: 1.0;"/><path d="M204.9688,29.6406 Q204.3906,29.9375 203.75,30.0781 Q203.1094,30.2344 202.4063,30.2344 Q199.9063,30.2344 198.5781,28.5938 Q197.2656,26.9375 197.2656,23.8125 Q197.2656,20.6875 198.5781,19.0313 Q199.9063,17.375 202.4063,17.375 Q203.1094,17.375 203.75,17.5313 Q204.4063,17.6875 204.9688,17.9844 L204.9688,20.7031 Q204.3438,20.125 203.75,19.8594 Q203.1563,19.5781 202.5313,19.5781 Q201.1875,19.5781 200.5,20.6563 Q199.8125,21.7188 199.8125,23.8125 Q199.8125,25.9063 200.5,26.9844 Q201.1875,28.0469 202.5313,28.0469 Q203.1563,28.0469 203.75,27.7813 Q204.3438,27.5 204.9688,26.9219 L204.9688,29.6406 Z "/><text fill="#000000" font-family="sans-serif" font-size="12" lengthAdjust="spacingAndGlyphs" textLength="141" x="216" y="28.1543">IAppearanceCommand</text><line style="stroke: #A80036; stroke-width: 1.5;" x1="188" x2="359" y1="40" y2="40"/><line style="stroke: #A80036; stroke-width: 1.5;" x1="188" x2="359" y1="48" y2="48"/><!--MD5=[2fc9b71fdd41bc1c08b2ededa42bca5e]
reverse link IAppearanceCommand to PercentageAppearanceCommand--><path d="M273.5,76.43 C273.5,89.33 273.5,103.32 273.5,115.71 " fill="none" id="IAppearanceCommand&lt;-PercentageAppearanceCommand" style="stroke: #A80036; stroke-width: 1.0;"/><polygon fill="none" points="266.5,76.23,273.5,56.23,280.5,76.23,266.5,76.23" style="stroke: #A80036; stroke-width: 1.0;"/><!--MD5=[688fe509165ae5db80e92567d0da87d5]
@startuml
class PercentageAppearanceCommand {
    + PercentageAppearanceCommand(r:int, g:int, b:int, w:int, brightness:int, percentage:float)
    + Message : string? <<get>>
}
IAppearanceCommand <|- - PercentageAppearanceCommand
@enduml

PlantUML version 1.2020.02(Sun Mar 01 10:22:07 GMT 2020)
(GPL source distribution)
Java Runtime: OpenJDK Runtime Environment
JVM: OpenJDK 64-Bit Server VM
Java Version: 11.0.9+11-Ubuntu-0ubuntu1
Operating System: Linux
Default Encoding: ANSI_X3.4-1968
Language: en
Country: US
--></g></svg>