<?xml version="1.0" encoding="UTF-8" standalone="no"?><svg xmlns="http://www.w3.org/2000/svg" xmlns:xlink="http://www.w3.org/1999/xlink" contentScriptType="application/ecmascript" contentStyleType="text/css" height="200px" preserveAspectRatio="none" style="width:415px;height:200px;" version="1.1" viewBox="0 0 415 200" width="415px" zoomAndPan="magnify"><defs><filter height="300%" id="f1icus2jpvw3ql" width="300%" x="-1" y="-1"><feGaussianBlur result="blurOut" stdDeviation="2.0"/><feColorMatrix in="blurOut" result="blurOut2" type="matrix" values="0 0 0 0 0 0 0 0 0 0 0 0 0 0 0 0 0 0 .4 0"/><feOffset dx="4.0" dy="4.0" in="blurOut2" result="blurOut3"/><feBlend in="SourceGraphic" in2="blurOut3" mode="normal"/></filter></defs><g><!--MD5=[c5ea7310d0279e52cbf07bb8c24be6f3]
class SolidAppearanceCommand--><rect fill="#FEFECE" filter="url(#f1icus2jpvw3ql)" height="73.6094" id="SolidAppearanceCommand" style="stroke: #A80036; stroke-width: 1.5;" width="398" x="6" y="116"/><ellipse cx="116.75" cy="132" fill="#ADD1B2" rx="11" ry="11" style="stroke: #A80036; stroke-width: 1.0;"/><path d="M119.7188,137.6406 Q119.1406,137.9375 118.5,138.0781 Q117.8594,138.2344 117.1563,138.2344 Q114.6563,138.2344 113.3281,136.5938 Q112.0156,134.9375 112.0156,131.8125 Q112.0156,128.6875 113.3281,127.0313 Q114.6563,125.375 117.1563,125.375 Q117.8594,125.375 118.5,125.5313 Q119.1563,125.6875 119.7188,125.9844 L119.7188,128.7031 Q119.0938,128.125 118.5,127.8594 Q117.9063,127.5781 117.2813,127.5781 Q115.9375,127.5781 115.25,128.6563 Q114.5625,129.7188 114.5625,131.8125 Q114.5625,133.9063 115.25,134.9844 Q115.9375,136.0469 117.2813,136.0469 Q117.9063,136.0469 118.5,135.7813 Q119.0938,135.5 119.7188,134.9219 L119.7188,137.6406 Z "/><text fill="#000000" font-family="sans-serif" font-size="12" lengthAdjust="spacingAndGlyphs" textLength="168" x="137.25" y="136.1543">SolidAppearanceCommand</text><line style="stroke: #A80036; stroke-width: 1.5;" x1="7" x2="403" y1="148" y2="148"/><ellipse cx="17" cy="159" fill="none" rx="3" ry="3" style="stroke: #038048; stroke-width: 1.0;"/><text fill="#000000" font-family="sans-serif" font-size="11" lengthAdjust="spacingAndGlyphs" textLength="138" x="26" y="162.2104">Message : string? «get»</text><line style="stroke: #A80036; stroke-width: 1.5;" x1="7" x2="403" y1="168.8047" y2="168.8047"/><ellipse cx="17" cy="179.8047" fill="#84BE84" rx="3" ry="3" style="stroke: #038048; stroke-width: 1.0;"/><text fill="#000000" font-family="sans-serif" font-size="11" lengthAdjust="spacingAndGlyphs" textLength="372" x="26" y="183.0151">SolidAppearanceCommand(r:int, g:int, b:int, w:int, brightness:int)</text><!--MD5=[c658c127403a91e2d91e1e1fa9cd53be]
class IAppearanceCommand--><rect fill="#FEFECE" filter="url(#f1icus2jpvw3ql)" height="48" id="IAppearanceCommand" style="stroke: #A80036; stroke-width: 1.5;" width="173" x="118.5" y="8"/><ellipse cx="133.5" cy="24" fill="#ADD1B2" rx="11" ry="11" style="stroke: #A80036; stroke-width: 1.0;"/><path d="M136.4688,29.6406 Q135.8906,29.9375 135.25,30.0781 Q134.6094,30.2344 133.9063,30.2344 Q131.4063,30.2344 130.0781,28.5938 Q128.7656,26.9375 128.7656,23.8125 Q128.7656,20.6875 130.0781,19.0313 Q131.4063,17.375 133.9063,17.375 Q134.6094,17.375 135.25,17.5313 Q135.9063,17.6875 136.4688,17.9844 L136.4688,20.7031 Q135.8438,20.125 135.25,19.8594 Q134.6563,19.5781 134.0313,19.5781 Q132.6875,19.5781 132,20.6563 Q131.3125,21.7188 131.3125,23.8125 Q131.3125,25.9063 132,26.9844 Q132.6875,28.0469 134.0313,28.0469 Q134.6563,28.0469 135.25,27.7813 Q135.8438,27.5 136.4688,26.9219 L136.4688,29.6406 Z "/><text fill="#000000" font-family="sans-serif" font-size="12" lengthAdjust="spacingAndGlyphs" textLength="141" x="147.5" y="28.1543">IAppearanceCommand</text><line style="stroke: #A80036; stroke-width: 1.5;" x1="119.5" x2="290.5" y1="40" y2="40"/><line style="stroke: #A80036; stroke-width: 1.5;" x1="119.5" x2="290.5" y1="48" y2="48"/><!--MD5=[19c3b71fcfa02dcc5e2d8387263aaa64]
reverse link IAppearanceCommand to SolidAppearanceCommand--><path d="M205,76.43 C205,89.33 205,103.32 205,115.71 " fill="none" id="IAppearanceCommand&lt;-SolidAppearanceCommand" style="stroke: #A80036; stroke-width: 1.0;"/><polygon fill="none" points="198,76.23,205,56.23,212,76.23,198,76.23" style="stroke: #A80036; stroke-width: 1.0;"/><!--MD5=[5c09631fa4590a49b7e9c0cd10bb9f10]
@startuml
class SolidAppearanceCommand {
    + SolidAppearanceCommand(r:int, g:int, b:int, w:int, brightness:int)
    + Message : string? <<get>>
}
IAppearanceCommand <|- - SolidAppearanceCommand
@enduml

PlantUML version 1.2020.02(Sun Mar 01 10:22:07 GMT 2020)
(GPL source distribution)
Java Runtime: OpenJDK Runtime Environment
JVM: OpenJDK 64-Bit Server VM
Java Version: 11.0.9+11-Ubuntu-0ubuntu1
Operating System: Linux
Default Encoding: ANSI_X3.4-1968
Language: en
Country: US
--></g></svg>