<?xml version="1.0" encoding="UTF-8" standalone="no"?><svg xmlns="http://www.w3.org/2000/svg" xmlns:xlink="http://www.w3.org/1999/xlink" contentScriptType="application/ecmascript" contentStyleType="text/css" height="213px" preserveAspectRatio="none" style="width:363px;height:213px;" version="1.1" viewBox="0 0 363 213" width="363px" zoomAndPan="magnify"><defs><filter height="300%" id="f1xtywhq5svxty" width="300%" x="-1" y="-1"><feGaussianBlur result="blurOut" stdDeviation="2.0"/><feColorMatrix in="blurOut" result="blurOut2" type="matrix" values="0 0 0 0 0 0 0 0 0 0 0 0 0 0 0 0 0 0 .4 0"/><feOffset dx="4.0" dy="4.0" in="blurOut2" result="blurOut3"/><feBlend in="SourceGraphic" in2="blurOut3" mode="normal"/></filter></defs><g><!--MD5=[1d7ba1c7002d54515419844fbd155368]
class Controller--><rect fill="#FEFECE" filter="url(#f1xtywhq5svxty)" height="86.4141" id="Controller" style="stroke: #A80036; stroke-width: 1.5;" width="329" x="23.2" y="8"/><ellipse cx="152.95" cy="24" fill="#ADD1B2" rx="11" ry="11" style="stroke: #A80036; stroke-width: 1.0;"/><path d="M155.9188,29.6406 Q155.3406,29.9375 154.7,30.0781 Q154.0594,30.2344 153.3563,30.2344 Q150.8563,30.2344 149.5281,28.5938 Q148.2156,26.9375 148.2156,23.8125 Q148.2156,20.6875 149.5281,19.0313 Q150.8563,17.375 153.3563,17.375 Q154.0594,17.375 154.7,17.5313 Q155.3563,17.6875 155.9188,17.9844 L155.9188,20.7031 Q155.2938,20.125 154.7,19.8594 Q154.1063,19.5781 153.4813,19.5781 Q152.1375,19.5781 151.45,20.6563 Q150.7625,21.7188 150.7625,23.8125 Q150.7625,25.9063 151.45,26.9844 Q152.1375,28.0469 153.4813,28.0469 Q154.1063,28.0469 154.7,27.7813 Q155.2938,27.5 155.9188,26.9219 L155.9188,29.6406 Z "/><text fill="#000000" font-family="sans-serif" font-size="12" lengthAdjust="spacingAndGlyphs" textLength="61" x="173.45" y="28.1543">Controller</text><line style="stroke: #A80036; stroke-width: 1.5;" x1="24.2" x2="351.2" y1="40" y2="40"/><line style="stroke: #A80036; stroke-width: 1.5;" x1="24.2" x2="351.2" y1="48" y2="48"/><ellipse cx="34.2" cy="59" fill="#84BE84" rx="3" ry="3" style="stroke: #038048; stroke-width: 1.0;"/><text fill="#000000" font-family="sans-serif" font-size="11" lengthAdjust="spacingAndGlyphs" textLength="64" x="43.2" y="62.2104">Controller()</text><ellipse cx="34.2" cy="71.8047" fill="#84BE84" rx="3" ry="3" style="stroke: #038048; stroke-width: 1.0;"/><text fill="#000000" font-family="sans-serif" font-size="11" lengthAdjust="spacingAndGlyphs" textLength="303" x="43.2" y="75.0151">AddInputCommand(command:InputCommands) : void</text><ellipse cx="34.2" cy="84.6094" fill="#84BE84" rx="3" ry="3" style="stroke: #038048; stroke-width: 1.0;"/><text fill="#000000" font-family="sans-serif" font-size="11" lengthAdjust="spacingAndGlyphs" textLength="69" x="43.2" y="87.8198">Stop() : void</text><!--MD5=[b9a6b2d14929c056c4c119d2e2b4f492]
class ILightRgbwEffect--><rect fill="#FEFECE" filter="url(#f1xtywhq5svxty)" height="48" id="ILightRgbwEffect" style="stroke: #A80036; stroke-width: 1.5;" width="134" x="38.7" y="154"/><ellipse cx="53.7" cy="170" fill="#ADD1B2" rx="11" ry="11" style="stroke: #A80036; stroke-width: 1.0;"/><path d="M56.6688,175.6406 Q56.0906,175.9375 55.45,176.0781 Q54.8094,176.2344 54.1063,176.2344 Q51.6063,176.2344 50.2781,174.5938 Q48.9656,172.9375 48.9656,169.8125 Q48.9656,166.6875 50.2781,165.0313 Q51.6063,163.375 54.1063,163.375 Q54.8094,163.375 55.45,163.5313 Q56.1063,163.6875 56.6688,163.9844 L56.6688,166.7031 Q56.0438,166.125 55.45,165.8594 Q54.8563,165.5781 54.2313,165.5781 Q52.8875,165.5781 52.2,166.6563 Q51.5125,167.7188 51.5125,169.8125 Q51.5125,171.9063 52.2,172.9844 Q52.8875,174.0469 54.2313,174.0469 Q54.8563,174.0469 55.45,173.7813 Q56.0438,173.5 56.6688,172.9219 L56.6688,175.6406 Z "/><text fill="#000000" font-family="sans-serif" font-size="12" lengthAdjust="spacingAndGlyphs" textLength="102" x="67.7" y="174.1543">ILightRgbwEffect</text><line style="stroke: #A80036; stroke-width: 1.5;" x1="39.7" x2="171.7" y1="186" y2="186"/><line style="stroke: #A80036; stroke-width: 1.5;" x1="39.7" x2="171.7" y1="194" y2="194"/><!--MD5=[76731f3e1e71ffe1670fc8cf02e43b15]
class ICommunicator--><rect fill="#FEFECE" filter="url(#f1xtywhq5svxty)" height="48" id="ICommunicator" style="stroke: #A80036; stroke-width: 1.5;" width="125" x="208.2" y="154"/><ellipse cx="223.2" cy="170" fill="#ADD1B2" rx="11" ry="11" style="stroke: #A80036; stroke-width: 1.0;"/><path d="M226.1688,175.6406 Q225.5906,175.9375 224.95,176.0781 Q224.3094,176.2344 223.6063,176.2344 Q221.1063,176.2344 219.7781,174.5938 Q218.4656,172.9375 218.4656,169.8125 Q218.4656,166.6875 219.7781,165.0313 Q221.1063,163.375 223.6063,163.375 Q224.3094,163.375 224.95,163.5313 Q225.6063,163.6875 226.1688,163.9844 L226.1688,166.7031 Q225.5438,166.125 224.95,165.8594 Q224.3563,165.5781 223.7313,165.5781 Q222.3875,165.5781 221.7,166.6563 Q221.0125,167.7188 221.0125,169.8125 Q221.0125,171.9063 221.7,172.9844 Q222.3875,174.0469 223.7313,174.0469 Q224.3563,174.0469 224.95,173.7813 Q225.5438,173.5 226.1688,172.9219 L226.1688,175.6406 Z "/><text fill="#000000" font-family="sans-serif" font-size="12" lengthAdjust="spacingAndGlyphs" textLength="93" x="237.2" y="174.1543">ICommunicator</text><line style="stroke: #A80036; stroke-width: 1.5;" x1="209.2" x2="332.2" y1="186" y2="186"/><line style="stroke: #A80036; stroke-width: 1.5;" x1="209.2" x2="332.2" y1="194" y2="194"/><!--MD5=[8f55aaa456c723a1ddc954093fd728ff]
link Controller to ILightRgbwEffect--><path d="M159.94,94.32 C148.04,112.45 134.49,133.11 123.9,149.25 " fill="none" id="Controller-&gt;ILightRgbwEffect" style="stroke: #A80036; stroke-width: 1.0;"/><polygon fill="#A80036" points="121,153.67,129.2785,148.3346,123.7405,149.4879,122.5872,143.9499,121,153.67" style="stroke: #A80036; stroke-width: 1.0;"/><text fill="#000000" font-family="sans-serif" font-size="13" lengthAdjust="spacingAndGlyphs" textLength="100" x="12.5419" y="142.9945">LightRgbwEffect</text><!--MD5=[734172f4b262252f5c3ebb3b6a74c1c0]
link Controller to ICommunicator--><path d="M215.8,94.32 C227.83,112.45 241.55,133.11 252.27,149.25 " fill="none" id="Controller-&gt;ICommunicator" style="stroke: #A80036; stroke-width: 1.0;"/><polygon fill="#A80036" points="255.21,153.67,253.5844,143.9562,252.453,149.4988,246.9104,148.3674,255.21,153.67" style="stroke: #A80036; stroke-width: 1.0;"/><text fill="#000000" font-family="sans-serif" font-size="13" lengthAdjust="spacingAndGlyphs" textLength="95" x="179.8731" y="142.9284">Communicator</text><!--MD5=[951468ec57cc5c1329aa69063c86dea0]
@startuml
class Controller {
    + Controller()
    + AddInputCommand(command:InputCommands) : void
    + Stop() : void
}
Controller - -> "LightRgbwEffect" ILightRgbwEffect
Controller - -> "Communicator" ICommunicator
@enduml

PlantUML version 1.2020.02(Sun Mar 01 10:22:07 GMT 2020)
(GPL source distribution)
Java Runtime: OpenJDK Runtime Environment
JVM: OpenJDK 64-Bit Server VM
Java Version: 11.0.9+11-Ubuntu-0ubuntu1
Operating System: Linux
Default Encoding: ANSI_X3.4-1968
Language: en
Country: US
--></g></svg>